<svg xmlns="http://www.w3.org/2000/svg" viewBox="0 0 652.75 251.39">
    <path id="rs-logo-rising" d="M43.22 173.12H6.24v45.63H2.28V112.11h33.98c10.69 0 19.2 2.76 25.52 8.28s9.48 13.01 9.48 22.49c0 7.28-2.26 13.64-6.77 19.08-4.52 5.45-10.27 8.83-17.25 10.14l28.49 45.63v1.03h-4.17l-28.34-45.63Zm-36.98-3.96h33.62c8.2 0 14.83-2.49 19.89-7.47s7.58-11.25 7.58-18.82c0-8.3-2.8-14.84-8.39-19.63-5.59-4.78-13.25-7.18-22.96-7.18H6.24v53.1ZM97.64 114.74c0-1.12.39-2.09 1.17-2.89.78-.81 1.73-1.21 2.86-1.21s2.09.4 2.89 1.21 1.21 1.77 1.21 2.89-.4 2.08-1.21 2.86c-.81.78-1.77 1.17-2.89 1.17s-2.08-.39-2.86-1.17c-.78-.78-1.17-1.73-1.17-2.86Zm6.01 104h-3.96v-79.25h3.96v79.25ZM178.5 199.34c0-9.62-8.2-16.16-24.61-19.63-9.86-2.1-16.72-4.8-20.58-8.09-3.86-3.3-5.79-7.82-5.79-13.59s2.45-10.59 7.36-14.36c4.91-3.76 11.29-5.64 19.15-5.64 8.54 0 15.4 2.04 20.58 6.12 5.17 4.08 7.76 9.58 7.76 16.52h-4.03c0-5.32-2.25-9.77-6.74-13.33-4.49-3.56-10.35-5.35-17.58-5.35s-12.43 1.51-16.48 4.54c-4.05 3.03-6.08 6.81-6.08 11.35 0 3.56.76 6.36 2.27 8.39 1.51 2.03 3.98 3.86 7.4 5.49 3.42 1.64 8.4 3.21 14.94 4.72 6.54 1.51 11.72 3.3 15.53 5.35s6.57 4.48 8.28 7.29c1.71 2.81 2.56 6.24 2.56 10.29 0 6.25-2.56 11.28-7.69 15.09s-11.84 5.71-20.14 5.71c-8.89 0-16.05-2.01-21.5-6.04-5.45-4.03-8.17-9.22-8.17-15.56h3.96c.39 5.57 2.84 9.9 7.36 13 4.52 3.1 10.63 4.65 18.35 4.65 7.08 0 12.83-1.65 17.25-4.94 4.42-3.3 6.63-7.29 6.63-11.98ZM203.19 114.74c0-1.12.39-2.09 1.17-2.89.78-.81 1.73-1.21 2.86-1.21s2.09.4 2.89 1.21 1.21 1.77 1.21 2.89-.4 2.08-1.21 2.86c-.81.78-1.77 1.17-2.89 1.17s-2.08-.39-2.86-1.17c-.78-.78-1.17-1.73-1.17-2.86Zm6 104h-3.96v-79.25h3.96v79.25ZM239.15 157.95c2.59-6.15 6.4-11.01 11.43-14.58 5.03-3.56 10.59-5.35 16.7-5.35 8.5 0 14.81 2.41 18.93 7.21 4.13 4.81 6.21 12.07 6.26 21.79v51.71h-3.96v-51.81c-.05-8.49-1.78-14.77-5.2-18.84s-8.84-6.11-16.26-6.11c-6.84 0-12.76 2.43-17.76 7.28-5.01 4.85-8.39 11.11-10.14 18.77v50.71h-3.96v-79.25h3.96v18.46ZM313.56 178.32c0-12.65 2.66-22.52 7.98-29.63 5.32-7.1 12.62-10.66 21.9-10.66 5.91 0 11.16 1.35 15.75 4.06 4.59 2.71 8.28 6.68 11.06 11.9v-14.5h4.03v77.86c0 10.45-2.69 18.61-8.06 24.5-5.37 5.88-12.67 8.83-21.9 8.83-5.32 0-10.19-1.15-14.61-3.45-4.42-2.3-8.19-5.61-11.32-9.91l2.78-2.64c3.08 3.9 6.45 6.88 10.11 8.95 3.66 2.07 7.96 3.1 12.89 3.1 8.15 0 14.5-2.47 19.04-7.42 4.54-4.95 6.88-11.93 7.03-20.95v-12.14c-2.74 4.49-6.43 7.95-11.1 10.36-4.66 2.42-9.95 3.63-15.86 3.63-9.18 0-16.43-3.64-21.75-10.91s-7.98-17.26-7.98-29.96v-1.03Zm4.03 1.53c0 11.33 2.25 20.23 6.74 26.7 4.49 6.47 10.79 9.7 18.9 9.7 6.69 0 12.38-1.55 17.07-4.65 4.69-3.1 8.01-7.46 9.96-13.07v-35.96c-4.3-13.72-13.26-20.58-26.88-20.58-8.16 0-14.49 3.2-19.01 9.59-4.52 6.4-6.77 15.82-6.77 28.27Z"/>
    <path id="rs-logo-sky" id="rs-logo-cloud" d="M489.52 161.71c0-4.54-1.06-8.39-3.19-11.54s-5.47-5.93-10.03-8.35c-4.57-2.42-11.46-4.89-20.69-7.43s-16.15-5.1-20.76-7.69c-4.61-2.59-8-5.59-10.14-9.01-2.15-3.42-3.22-7.57-3.22-12.45 0-7.76 3.27-14.05 9.81-18.86 6.54-4.81 15.06-7.21 25.56-7.21 6.84 0 12.98 1.33 18.42 3.99 5.44 2.66 9.66 6.4 12.63 11.21 2.98 4.81 4.47 10.24 4.47 16.3h-3.96c0-7.96-2.93-14.54-8.79-19.74s-13.45-7.8-22.78-7.8-16.96 2.09-22.74 6.26-8.68 9.41-8.68 15.71 2.51 11.55 7.54 15.45c5.03 3.91 13.33 7.36 24.9 10.36s20.04 6.48 25.42 10.44c6.84 5.03 10.25 11.77 10.25 20.21 0 5.37-1.51 10.12-4.54 14.25-3.03 4.13-7.32 7.31-12.89 9.56s-11.82 3.37-18.75 3.37c-7.72 0-14.65-1.28-20.8-3.85s-10.78-6.21-13.88-10.95c-3.1-4.74-4.65-10.33-4.65-16.77h3.96c0 8.74 3.27 15.53 9.81 20.36 6.54 4.83 15.06 7.25 25.56 7.25 9.33 0 17.02-2.14 23.07-6.41 6.05-4.27 9.08-9.83 9.08-16.66ZM527.9 144.42l-.15.15-11.5 9.89v32.81h-3.96V74.77h3.96v75.37l9.3-8.79 36.04-33.33h5.64l-36.4 33.76 38.67 45.48h-5.13l-36.47-42.85ZM607.51 181.12l.51-1.46 27.39-71.63h4.39l-35.45 93.02-1.76 4.39c-3.81 9.23-10.11 13.84-18.9 13.84-2.83 0-4.79-.27-5.86-.82l-.07-3.79c1.56.44 3.34.66 5.35.66 4.15 0 7.59-1.21 10.33-3.62 2.73-2.41 5.1-6.34 7.11-11.8l4.83-13.08-31.57-78.81h4.32l29.37 73.1Z"/>
    <path id="rs-logo-cloud" d="M586.63 16.35a12.554 12.554 0 0 0-7.72-2.62c-6.85 0-12.43 5.41-12.59 12.16-7.07 2.63-12.1 9.38-12.1 17.31 0 9.35 7.02 17.09 16.13 18.31v.17h64.53v-.03c9-.52 16.13-7.91 16.13-16.95s-6.64-15.91-15.17-16.87c.04-.53.05-1.07.05-1.61 0-13.51-11.51-24.47-25.71-24.47-10.51 0-19.54 6-23.53 14.6"/>
</svg>