<svg id="Default" xmlns="http://www.w3.org/2000/svg" viewBox="0 0 200 202.27">
  <defs>
    <style>
      .cls-1, .cls-2, .cls-3 {
        opacity:0;
        animation: show 1s ease-in 2.5s forwards;
      }
      
      .cls-1 {
        fill: #036;
      }

      .cls-2 {
        fill: #036;
      }

      .cls-3 {
        fill: #2990ea;
      }

      .cls-4, .cls-5, .cls-6 {
        fill: none;
        stroke-miterlimit: 10;
        stroke-width: 2px;
        stroke-dasharray: 1000;
        stroke-dashoffset: 1000;
        animation: dash 3.5s linear;
      }

      .cls-4 {
        stroke: #036;
      }

      .cls-5 {
        stroke: #2990EA;
      }

      .cls-6 {
        stroke: #036;
      }
      
      @keyframes dash {
         0% {
            stroke-dashoffset: 1000;
            opacity: 1;
          }
          60% {
            stroke-dashoffset: 600;
            opacity: 1;
          }
          100% {
            stroke-dashoffset: 0;
            opacity: 0;
          }
      }
      
      @keyframes show {
        to {
          opacity: 1;
        }
      }
    </style>
  </defs>
  <polygon class="cls-1" points="17.28 193.2 9.91 193.2 9.91 199.15 18.13 199.15 18.13 201.98 6.23 201.98 6.23 182.15 17.85 182.15 17.85 184.99 9.91 184.99 9.91 190.37 17.28 190.37 17.28 193.2"/>
  <path class="cls-1" d="M24.93,182.15v11.62c0,4,1.7,5.66,4,5.66,2.55,0,4.24-1.7,4.24-5.66V182.15h3.69v11.34c0,6.23-3.12,8.78-7.93,8.78-4.54,0-7.65-2.55-7.65-8.78V182.15Z"/>
  <path class="cls-1" d="M41.08,182.44a28.56,28.56,0,0,1,5.38-.57c2.83,0,4.81.57,6.23,1.7a4.75,4.75,0,0,1,1.7,4,4.91,4.91,0,0,1-3.68,4.81c1.41.57,2.27,2,2.83,3.68A41.2,41.2,0,0,0,55,201.42H51.27a30.06,30.06,0,0,1-1.41-4.53c-.57-2.55-1.42-3.41-3.68-3.41h-1.7v8.22H40.79V182.44Zm3.4,8.78h2.26c2.55,0,4-1.42,4-3.4,0-2.27-1.42-3.12-4-3.12-1.13,0-2,0-2.26.29Z"/>
  <path class="cls-1" d="M65.72,202.27c-5.66,0-9.06-4.25-9.06-10.2s4-10.48,9.35-10.48c5.66,0,9.06,4.25,9.06,9.91.28,7.08-4,10.77-9.35,10.77m.29-2.84c3.39,0,5.38-3.11,5.38-7.36,0-3.68-2-7.37-5.38-7.37s-5.39,3.4-5.39,7.37c-.28,4,1.7,7.36,5.39,7.36"/>
  <path class="cls-1" d="M92.63,201.42a16.92,16.92,0,0,1-5.09.85c-6.24,0-10.2-4-10.2-9.92,0-6.51,4.53-10.48,10.48-10.48a14.58,14.58,0,0,1,4.81.85l-.84,2.83a12,12,0,0,0-4-.85c-4,0-6.8,2.55-6.8,7.37,0,4.25,2.55,7.08,6.8,7.08a16.37,16.37,0,0,0,4-.57Z"/>
  <path class="cls-1" d="M102.83,202.27c-5.66,0-9.06-4.25-9.06-10.2s4-10.48,9.35-10.48c5.66,0,9.06,4.25,9.06,9.91.29,7.08-3.68,10.77-9.35,10.77m.29-2.84c3.4,0,5.38-3.11,5.38-7.36,0-3.68-2-7.37-5.38-7.37s-5.39,3.4-5.39,7.37,2,7.36,5.39,7.36"/>
  <path class="cls-1" d="M115.58,202V182.15h4.25l5.1,8.5a46.92,46.92,0,0,1,3.4,6.52,75.18,75.18,0,0,1-.28-8.22v-6.8h3.39V202h-3.68l-5.38-8.78a75.63,75.63,0,0,1-3.4-6.8,77.79,77.79,0,0,1,.28,8.5V202Z"/>
  <polygon class="cls-1" points="139.09 185.27 133.43 185.27 133.43 182.15 148.44 182.15 148.44 185.27 142.78 185.27 142.78 201.98 139.09 201.98 139.09 185.27"/>
  <path class="cls-1" d="M150.71,182.44a28.56,28.56,0,0,1,5.38-.57c2.83,0,4.82.57,6.23,1.7a4.75,4.75,0,0,1,1.7,4,4.91,4.91,0,0,1-3.68,4.81c1.42.57,2.27,2,2.83,3.68a43.15,43.15,0,0,0,1.42,5.39h-3.68a28.67,28.67,0,0,1-1.42-4.53c-.57-2.55-1.42-3.41-3.68-3.41h-1.7v8.22h-3.69V182.44Zm3.68,8.78h2.27c2.55,0,4-1.42,4-3.4,0-2.27-1.41-3.12-4-3.12-1.14,0-2,0-2.27.29Z"/>
  <path class="cls-1" d="M175.64,202.27c-5.67,0-9.07-4.25-9.07-10.2s4-10.48,9.35-10.48c5.67,0,9.07,4.25,9.07,9.91,0,7.08-4,10.77-9.35,10.77m.28-2.84c3.4,0,5.38-3.11,5.38-7.36,0-3.68-2-7.37-5.38-7.37s-5.38,3.4-5.38,7.37c-.29,4,1.7,7.36,5.38,7.36"/>
  <polygon class="cls-1" points="188.1 182.15 191.78 182.15 191.78 198.87 200 198.87 200 201.98 188.38 201.98 188.38 182.15 188.1 182.15"/>
  <path id="buttomFill" class="cls-2" d="M102.8,129.1a47.78,47.78,0,0,1-30.24-10.71H28.8a83.32,83.32,0,0,0,149.4-2.26H135.66a47.83,47.83,0,0,1-32.86,13"/>
  <path id="topFill" class="cls-2" d="M169.69,34A81.64,81.64,0,0,0,23.51,98.3l82.15-36.54h-45a47,47,0,0,1,75.64-13.6Z"/>
  <polygon id="middleFill" class="cls-3" points="186.4 30.03 104.25 113.6 0 113.6 186.4 30.03"/>
  <path class="cls-4" d="M103.38.07A81.66,81.66,0,0,0,23.51,98.3l82.15-36.54h-45a47,47,0,0,1,75.64-13.6L169.69,34A81.52,81.52,0,0,0,103.38.07Z"/>
  <polygon class="cls-5" points="186.4 30.03 104.25 113.6 0 113.6 186.4 30.03"/>
  <path class="cls-6" d="M178.2,116.13a83.32,83.32,0,0,1-149.4,2.26H72.56A47.78,47.78,0,0,0,102.8,129.1v0a47.83,47.83,0,0,0,32.86-13Z"/>
</svg>
