<?xml version="1.0" standalone="no"?>
<!DOCTYPE svg PUBLIC "-//W3C//DTD SVG 20010904//EN"
 "http://www.w3.org/TR/2001/REC-SVG-20010904/DTD/svg10.dtd">
<svg version="1.0" xmlns="http://www.w3.org/2000/svg"
 width="700.000000pt" height="700.000000pt" viewBox="0 0 700.000000 700.000000"
 preserveAspectRatio="xMidYMid meet">
<metadata>
Created by potrace 1.14, written by Peter Selinger 2001-2017
</metadata>
<g transform="translate(0.000000,700.000000) scale(0.100000,-0.100000)"
fill="#000000" stroke="none">
<path d="M3200 6990 c-287 -29 -530 -78 -775 -157 -60 -19 -123 -41 -140 -48
-16 -7 -73 -29 -125 -50 -386 -153 -800 -428 -1116 -742 -571 -565 -912 -1256
-1020 -2063 -20 -147 -27 -629 -11 -765 53 -464 165 -851 352 -1225 497 -991
1422 -1686 2505 -1884 243 -44 326 -51 625 -51 301 0 393 7 631 50 1170 211
2160 1012 2613 2113 128 313 220 683 248 1007 4 50 8 209 7 355 0 239 -11 395
-38 535 -2 11 -7 40 -11 65 -4 25 -22 108 -40 186 -212 893 -774 1670 -1562
2163 -46 28 -85 51 -88 51 -3 0 -24 12 -47 26 -223 141 -716 324 -1018 378
-41 7 -104 18 -125 23 -11 2 -54 8 -95 13 -41 5 -93 12 -115 15 -65 9 -573 13
-655 5z"/>
</g>
</svg>
