<svg data-id="balloon" style=""
  xmlns="http://www.w3.org/2000/svg" viewBox="0 0 800 800">
  <defs>
    <style>
      .cls-1 {
        fill: #666;
      }

      .cls-2 {
        fill: #ff87e5;
      }

      .cls-3 {
        fill: #8affb5;
      }

      .cls-4 {
        fill: #ecff6f;
      }

      .cls-5 {
        fill: #ff876f;
      }
    </style>
  </defs>
  <path class="cls-1" d="M661.53,264.23c.15-.8.24-1.62.24-2.46,0-1.29-.19-2.53-.54-3.71C652.61,114.24,538.75,0,400,0S147.39,114.24,138.77,258.06c-.35,1.18-.54,2.42-.54,3.71,0,.84.09,1.66.24,2.46-.15,3.77-.24,7.56-.24,11.36,0,52.47,31.45,164.01,180.04,397.94-.22.94-.34,1.92-.34,2.93v69.11c0,30.01,24.41,54.43,54.42,54.43h55.3c30.01,0,54.42-24.42,54.42-54.43v-69.11c0-1.01-.12-1.99-.34-2.93,148.59-233.93,180.04-345.47,180.04-397.94,0-3.8-.09-7.59-.24-11.36ZM634.49,248.81h-56.5c-3.17-50.98-15.36-99.32-35.31-139.95h32.71c32.26,37.98,53.69,86.47,59.1,139.95ZM304.11,274.73c0,.29-.01.58-.01.86,0,15.72-12.79,28.51-28.51,28.51s-28.51-12.79-28.51-28.51c0-.28.02-.57.02-.86h57.01ZM248,248.81c3.43-51.94,16.8-100.64,38.59-139.95h35.98c-10.18,40.41-16.42,88.81-18.03,139.95h-56.54ZM275.59,330.02c11.3,0,21.79-3.46,30.5-9.37,4.23,54.72,14.75,123.86,26.69,190.8h-27.2c-27.81-77.05-45.79-139.61-53.75-186.9,7.18,3.5,15.25,5.47,23.76,5.47ZM387.04,274.73v.86c0,15.72-12.79,28.51-28.51,28.51s-28.51-12.79-28.51-28.51c0-.28.01-.57.01-.86h57.01ZM330.47,248.81c1.68-51.73,8.2-100.35,18.85-139.95h37.72v139.95h-56.57ZM332.27,323.25c7.79,4.31,16.74,6.77,26.26,6.77,10.45,0,20.22-2.96,28.51-8.09v189.52h-27.94c-11.84-65.86-22.38-134.06-26.83-188.2ZM436.16,537.36c-8.63,46.33-17.59,90.36-25.16,126.14h-22c-7.57-35.78-16.53-79.81-25.16-126.14h72.32ZM412.96,511.45v-189.52c8.3,5.13,18.06,8.09,28.51,8.09,9.52,0,18.47-2.46,26.26-6.77-4.45,54.14-14.99,122.34-26.82,188.2h-27.95ZM469.97,274.73c0,.29.01.58.01.86,0,15.72-12.79,28.51-28.51,28.51s-28.51-12.79-28.51-28.51v-.86h57.01ZM412.96,248.81V108.86h37.72c10.65,39.6,17.17,88.22,18.85,139.95h-56.57ZM493.91,320.65c8.71,5.91,19.21,9.37,30.5,9.37,8.51,0,16.58-1.97,23.76-5.47-7.96,47.29-25.94,109.85-53.75,186.9h-27.2c11.93-66.94,22.46-136.08,26.69-190.8ZM477.43,108.86h35.98c21.79,39.32,35.16,88.01,38.6,139.95h-56.54c-1.62-51.14-7.86-99.54-18.04-139.95ZM524.41,304.1c-15.72,0-28.51-12.79-28.51-28.51,0-.28-.01-.57-.01-.86h57.01c0,.29,0,.58,0,.86.01,15.72-12.78,28.51-28.5,28.51ZM400,25.92c56.86,0,109.09,21.41,149.86,57.02h-27.69c-.83-.08-1.67-.08-2.51,0H250.14c40.77-35.61,93-57.02,149.86-57.02ZM224.61,108.86h32.71c-19.95,40.63-32.13,88.97-35.31,139.95h-56.5c5.41-53.48,26.84-101.97,59.1-139.95ZM164.16,274.73h57.02c0,.29-.01.58-.01.86,0,15.72-12.79,28.51-28.51,28.51s-28.51-12.79-28.51-28.51c0-.28,0-.57,0-.86ZM171.81,325.86c6.43,2.68,13.47,4.16,20.85,4.16,12.03,0,23.16-3.93,32.18-10.57,7.2,48.54,25.01,112.82,53.21,192h-25.68c-40.83-75.26-68.15-138.12-80.56-185.59ZM266.69,537.36h70.8c8.51,46.04,17.4,89.96,25.02,126.14h-19.9c-28.55-44.83-53.91-87-75.92-126.14ZM456.16,745.57c0,15.72-12.79,28.51-28.51,28.51h-55.3c-15.72,0-28.51-12.79-28.51-28.51v-.86h112.32v.86ZM456.16,718.79h-112.32v-29.37h34.55s.07.01.1.01c.05,0,.11-.01.16-.01h77.51v29.37ZM457.39,663.5h-19.9c7.62-36.18,16.51-80.1,25.02-126.14h40.86s.09.01.13.01c.03,0,.06-.01.08-.01h29.73c-22.01,39.14-47.37,81.31-75.92,126.14ZM547.63,511.45h-25.68c28.2-79.18,46.01-143.46,53.21-192,9.02,6.64,20.15,10.57,32.18,10.57,7.38,0,14.43-1.48,20.85-4.16-12.41,47.47-39.73,110.33-80.56,185.59ZM607.34,304.1c-15.72,0-28.51-12.79-28.51-28.51,0-.28-.01-.57-.01-.86h57.02c0,.29,0,.58,0,.86,0,15.72-12.79,28.51-28.51,28.51Z"/>
  <path class="cls-3" d="M456.16,744.71v.86c0,15.72-12.79,28.51-28.51,28.51h-55.3c-15.72,0-28.51-12.79-28.51-28.51v-.86h112.32Z"/>
  <path class="cls-3" d="M456.16,689.42v29.37h-112.32v-29.37h34.55s.07.01.1.01c.05,0,.11-.01.16-.01h77.51Z"/>
  <path class="cls-5" d="M278.05,511.45h-25.68c-40.83-75.26-68.15-138.12-80.56-185.59,6.43,2.68,13.47,4.16,20.85,4.16,12.03,0,23.16-3.93,32.18-10.57,7.2,48.54,25.01,112.82,53.21,192Z"/>
  <path class="cls-4" d="M332.78,511.45h-27.2c-27.81-77.05-45.79-139.61-53.75-186.9,7.18,3.5,15.25,5.47,23.76,5.47,11.3,0,21.79-3.46,30.5-9.37,4.23,54.72,14.75,123.86,26.69,190.8Z"/>
  <path class="cls-5" d="M387.04,321.93v189.52h-27.94c-11.84-65.86-22.38-134.06-26.83-188.2,7.79,4.31,16.74,6.77,26.26,6.77,10.45,0,20.22-2.96,28.51-8.09Z"/>
  <path class="cls-4" d="M467.73,323.25c-4.45,54.14-14.99,122.34-26.82,188.2h-27.95v-189.52c8.3,5.13,18.06,8.09,28.51,8.09,9.52,0,18.47-2.46,26.26-6.77Z"/>
  <path class="cls-5" d="M548.17,324.55c-7.96,47.29-25.94,109.85-53.75,186.9h-27.2c11.93-66.94,22.46-136.08,26.69-190.8,8.71,5.91,19.21,9.37,30.5,9.37,8.51,0,16.58-1.97,23.76-5.47Z"/>
  <path class="cls-4" d="M628.19,325.86c-12.41,47.47-39.73,110.33-80.56,185.59h-25.68c28.2-79.18,46.01-143.46,53.21-192,9.02,6.64,20.15,10.57,32.18,10.57,7.38,0,14.43-1.48,20.85-4.16Z"/>
  <path class="cls-2" d="M635.85,275.59c0,15.72-12.79,28.51-28.51,28.51s-28.51-12.79-28.51-28.51c0-.28-.01-.57-.01-.86h57.02c0,.29,0,.58,0,.86Z"/>
  <path class="cls-2" d="M552.91,275.59c.01,15.72-12.78,28.51-28.5,28.51s-28.51-12.79-28.51-28.51c0-.28-.01-.57-.01-.86h57.01c0,.29,0,.58,0,.86Z"/>
  <path class="cls-2" d="M469.98,275.59c0,15.72-12.79,28.51-28.51,28.51s-28.51-12.79-28.51-28.51v-.86h57.01c0,.29.01.58.01.86Z"/>
  <path class="cls-2" d="M387.04,274.73v.86c0,15.72-12.79,28.51-28.51,28.51s-28.51-12.79-28.51-28.51c0-.28.01-.57.01-.86h57.01Z"/>
  <path class="cls-2" d="M304.11,274.73c0,.29-.01.58-.01.86,0,15.72-12.79,28.51-28.51,28.51s-28.51-12.79-28.51-28.51c0-.28.02-.57.02-.86h57.01Z"/>
  <path class="cls-2" d="M221.18,274.73c0,.29-.01.58-.01.86,0,15.72-12.79,28.51-28.51,28.51s-28.51-12.79-28.51-28.51c0-.28,0-.57,0-.86h57.02Z"/>
  <path class="cls-4" d="M634.49,248.81h-56.5c-3.17-50.98-15.36-99.32-35.31-139.95h32.71c32.26,37.98,53.69,86.47,59.1,139.95Z"/>
  <path class="cls-5" d="M552.01,248.81h-56.54c-1.62-51.14-7.86-99.54-18.04-139.95h35.98c21.79,39.32,35.16,88.01,38.6,139.95Z"/>
  <path class="cls-4" d="M469.53,248.81h-56.57V108.86h37.72c10.65,39.6,17.17,88.22,18.85,139.95Z"/>
  <path class="cls-5" d="M387.04,108.86v139.95h-56.57c1.68-51.73,8.2-100.35,18.85-139.95h37.72Z"/>
  <path class="cls-4" d="M322.57,108.86c-10.18,40.41-16.42,88.81-18.03,139.95h-56.54c3.43-51.94,16.8-100.64,38.59-139.95h35.98Z"/>
  <path class="cls-5" d="M257.32,108.86c-19.95,40.63-32.13,88.97-35.31,139.95h-56.5c5.41-53.48,26.84-101.97,59.1-139.95h32.71Z"/>
  <path class="cls-2" d="M549.86,82.94h-27.69c-.83-.08-1.67-.08-2.51,0H250.14c40.77-35.61,93-57.02,149.86-57.02s109.09,21.41,149.86,57.02Z"/>
</svg>