<?xml version="1.0" standalone="no"?>
<!DOCTYPE svg PUBLIC "-//W3C//DTD SVG 20010904//EN"
 "http://www.w3.org/TR/2001/REC-SVG-20010904/DTD/svg10.dtd">
<svg version="1.0" xmlns="http://www.w3.org/2000/svg"
 width="700.000000pt" height="700.000000pt" viewBox="0 0 700.000000 700.000000"
 preserveAspectRatio="xMidYMid meet">
<metadata>
Created by potrace 1.14, written by Peter Selinger 2001-2017
</metadata>
<g transform="translate(0.000000,700.000000) scale(0.100000,-0.100000)"
fill="#000000" stroke="none">
<path d="M3299 6916 c-2 -2 -44 -6 -94 -10 -49 -3 -105 -8 -123 -11 -54 -7
-107 -15 -127 -19 -11 -2 -40 -7 -65 -11 -25 -4 -52 -9 -60 -10 -300 -62 -571
-156 -845 -291 -541 -267 -994 -665 -1330 -1169 -183 -274 -311 -539 -413
-855 -36 -112 -93 -335 -105 -415 -3 -16 -10 -59 -16 -95 -5 -36 -13 -90 -16
-120 -3 -30 -9 -89 -14 -130 -9 -75 -6 -548 3 -605 2 -16 7 -55 11 -85 12 -98
16 -123 36 -230 27 -139 27 -139 33 -158 3 -9 7 -28 10 -42 7 -37 64 -225 91
-300 121 -337 290 -650 499 -925 34 -44 66 -85 71 -91 6 -6 30 -36 55 -65 76
-91 270 -287 360 -362 47 -40 87 -74 90 -77 32 -32 340 -250 354 -250 3 0 25
-13 49 -30 113 -76 426 -222 632 -294 188 -65 438 -125 635 -152 19 -3 49 -7
65 -9 146 -21 564 -27 715 -12 214 22 345 44 522 88 614 154 1134 447 1579
889 214 212 344 373 492 607 207 327 384 760 453 1108 55 276 72 464 69 760
-2 138 -5 259 -8 270 -3 11 -8 52 -11 90 -21 216 -118 617 -191 790 -7 17 -23
57 -35 90 -27 71 -143 312 -195 405 -58 102 -180 286 -265 395 -353 459 -830
830 -1355 1056 -151 64 -409 152 -545 184 -49 11 -221 45 -255 50 -22 3 -49 8
-60 10 -11 2 -49 7 -85 10 -36 4 -76 9 -90 12 -28 5 -515 14 -521 9z"/>
</g>
</svg>
