<svg id="logo" xmlns="http://www.w3.org/2000/svg" viewBox="0 0 809.04 299.16">
  <defs>
    <style>
      .cls-1 {
        fill: #92aba3;
      }

      .cls-2 {
        fill: #e4ba7d;
      }

      .cls-3 {
        fill: #d55239;
      }

      .cls-4 {
        fill: #374160;
      }

      .cls-5 {
        fill: #f3e1c8;
      }

      .cls-6 {
        fill: #f7f7f7;
      }
    </style>
  </defs>
  <g>
    <g>
      <path class="cls-1" d="M522.65,157.76l-.19-.22-.2-.21-.2-.22c-.06-.07-.12-.15-.19-.22l-.2-.21-.19-.22-.2-.21-.2-.22-.19-.21-.2-.22-.19-.22-.2-.21-.2-.22-.19-.21-.2-.22-.19-.21-.2-.22c-.07-.07-.13-.15-.2-.21a2,2,0,0,0-.19-.22l-.2-.22-.19-.21-.2-.22-.2-.21-.19-.22c-.07-.07-.13-.15-.2-.21l-.2-.22c-.06-.07-.12-.15-.19-.22l-.2-.21-.19-.22-.2-.21-.2-.22-.19-.21-.2-.22-.19-.22-.2-.21-.2-.22-.19-.21-.2-.22-.19-.21-.2-.22-.2-.22-.19-.21-.2-.22-.19-.21-.2-.22-.2-.21a2,2,0,0,0-.19-.22l-.2-.22-.19-.21-.2-.22a12,12,0,0,0-8.94-3.75,16.12,16.12,0,0,0-1.93.12c-4.5.56-8.69,2.48-12.06,4-1,.48-2.46,1.14-3.38,1.49l-.52-.14a40.51,40.51,0,0,0-11.47-1.66,47.9,47.9,0,0,0-5.86.37c-16.83,2.07-29,9.62-37,19.64l-.19-.2c-.06-.08-.13-.15-.19-.22l-.2-.21a2.09,2.09,0,0,0-.2-.22l-.19-.21-.2-.22c-.06-.07-.13-.14-.19-.22l-.2-.21a2.09,2.09,0,0,0-.2-.22l-.19-.21-.2-.22-.19-.21-.2-.22-.2-.22-.19-.21-.2-.22-.2-.21c-.06-.08-.13-.15-.19-.22L428,163c-.06-.08-.13-.15-.19-.22l-.2-.22-.2-.21c-.06-.07-.13-.14-.19-.22l-.2-.21c-.06-.08-.13-.15-.19-.22-3.76-4.31-9.54-6.78-16.74-6.78a39.18,39.18,0,0,0-4.83.31c-6.74.83-13.12,3.86-18.52,7.46A15.57,15.57,0,0,0,376.18,159a23.29,23.29,0,0,0-2.84.18,75.66,75.66,0,0,0-11.66,2.37,24.33,24.33,0,0,0,.38-4.25,19.16,19.16,0,0,0-5.43-13.78l-.2-.22-.2-.21c-.06-.07-.12-.15-.19-.22s-.13-.15-.2-.21-.13-.15-.19-.22l-.2-.22-.2-.21c-.06-.07-.12-.15-.19-.22l-.2-.21-.2-.22a1.9,1.9,0,0,0-.19-.21l-.2-.22c-.06-.07-.12-.15-.19-.22l-.2-.21-.2-.22-.19-.21-.2-.22c-.07-.07-.12-.15-.19-.21l-.2-.22-.2-.22-.19-.21-.2-.22-.19-.21-.2-.22c-.07-.07-.13-.15-.2-.21s-.12-.15-.19-.22-.13-.15-.2-.21-.13-.15-.19-.22l-.2-.22-.2-.21c-.06-.07-.12-.15-.19-.22l-.2-.21c-.07-.07-.13-.15-.19-.22l-.2-.22c-.07-.06-.13-.14-.2-.21s-.12-.15-.19-.22l-.2-.21c-.07-.07-.13-.15-.19-.22l-.2-.21-.2-.22a1.9,1.9,0,0,0-.19-.21l-.2-.22-.2-.22L348,134l-.2-.22-.19-.21-.2-.22c-.07-.07-.13-.15-.2-.21s-.12-.15-.19-.22l-.2-.22a19.05,19.05,0,0,0-13.94-5.63,25,25,0,0,0-3.08.19c-12.22,1.5-23.36,14.78-23.36,27.87A19.18,19.18,0,0,0,311.26,168l.2.22.19.21.2.22.2.22.19.21.15.17a26,26,0,0,0-8.53,5.83c-4-3.42-9.93-5.71-18.24-5.71a57.42,57.42,0,0,0-6.84.44,55.64,55.64,0,0,0-14.62,3.78,25,25,0,0,0,.38-4.31,19.18,19.18,0,0,0-5.43-13.78l-.19-.21-.2-.22-.2-.22-.19-.21-.2-.22-.19-.21-.2-.22c-.07-.07-.13-.15-.2-.21s-.12-.15-.19-.22l-.2-.22-.19-.21-.2-.22-.2-.21c-.06-.07-.12-.15-.19-.22s-.13-.15-.2-.21-.13-.15-.19-.22l-.2-.22c-.07-.06-.13-.14-.2-.21s-.12-.15-.19-.22l-.2-.21-.2-.22-.19-.21-.2-.22c-.07-.07-.13-.15-.19-.22s-.13-.14-.2-.21l-.2-.22-.19-.21-.2-.22-.19-.21-.2-.22c-.07-.07-.13-.15-.2-.21s-.12-.15-.19-.22l-.2-.22-.19-.21-.2-.22-.2-.21c-.06-.07-.12-.15-.19-.22s-.13-.15-.2-.21l-.2-.22c-.06-.07-.12-.15-.19-.22l-.2-.21c-.06-.07-.12-.15-.19-.22l-.2-.21-.2-.22a1.9,1.9,0,0,0-.19-.21l-.2-.22c-.07-.07-.12-.15-.19-.22l-.2-.21-.2-.22-.19-.21A19.08,19.08,0,0,0,235.37,139a25,25,0,0,0-3.08.19,23,23,0,0,0-10,3.92,30.64,30.64,0,0,0-2.85-3.85l-.2-.21a2.09,2.09,0,0,0-.2-.22c-.06-.07-.13-.14-.19-.22l-.2-.21c-.06-.07-.13-.14-.19-.22l-.2-.21a2.09,2.09,0,0,0-.2-.22l-.19-.21-.2-.22-.2-.22-.19-.21-.2-.22-.19-.21-.2-.22-.2-.21c-.06-.08-.13-.15-.19-.22l-.2-.22-.19-.21a2.09,2.09,0,0,1-.2-.22l-.2-.21c-.06-.08-.13-.14-.19-.22l-.2-.21c-.06-.08-.13-.15-.19-.22a2.09,2.09,0,0,1-.2-.22l-.2-.21c-.06-.07-.13-.14-.19-.22l-.2-.21c-.06-.08-.13-.14-.19-.22l-.2-.21a2.09,2.09,0,0,0-.2-.22l-.19-.21-.2-.22-.2-.22-.19-.21c-.06-.08-.13-.14-.2-.22l-.19-.21-.2-.22-.19-.21-.2-.22-.2-.22-.19-.21a2.09,2.09,0,0,1-.2-.22L211,130c-.06-.08-.13-.15-.19-.22l-.2-.21c-.06-.08-.13-.15-.19-.22a2.09,2.09,0,0,1-.2-.22l-.2-.21c-.06-.08-.13-.14-.19-.22l-.2-.21c-7.32-8.5-19.76-13.21-36.18-13.21a109.71,109.71,0,0,0-13.26.86c-26.33,3.23-50.85,11.86-69,24.31C71.06,154.2,60,171.76,60,189.91c0,8.77,2.8,16.1,7.69,21.23l.2.22.19.21.2.22.19.21.2.22.2.21.19.22.2.21c.06.08.13.15.19.22l.2.22.2.21.19.22.2.21c.07.07.13.15.19.22l.2.21.2.22.19.22.2.21.2.22.19.21.2.22.19.21.2.22.2.22.19.21.2.22L73,217l.2.22.2.21c.06.08.13.15.19.22l.2.22L74,218l.2.22.2.21.19.22.2.21.2.22.19.21.2.22.19.22.2.21.2.22.19.21.2.22.19.21.2.22.2.22.19.21.2.22.19.21c4.89,5.26,11.91,8.28,20.34,8.28a36.86,36.86,0,0,0,3.89-.23c-4.16,16.09-6.26,26.11-6.26,30.84a14.76,14.76,0,0,0,2.92,9.36,13.07,13.07,0,0,0,1,1.11c.07.07.13.15.2.21a2,2,0,0,0,.19.22l.2.22.2.21c.06.07.12.15.19.22s.13.15.2.21l.19.22c.07.07.13.15.2.21l.2.22c.06.07.12.15.19.22l.2.21.19.22.2.21.2.22a1.9,1.9,0,0,0,.19.21l.2.22.19.22.2.21.2.22.19.21.2.22.19.21.2.22.2.22.19.21.2.22.19.21.2.22c.07.07.13.15.2.21s.12.15.19.22l.2.22.2.21c.06.07.12.15.19.22l.2.21.19.22c.07.07.13.15.2.21l.2.22c.06.07.12.15.19.22l.2.21.19.22.2.21.2.22a1.9,1.9,0,0,0,.19.21l.2.22.19.21.2.22.2.22.19.21.2.22.19.21a12.59,12.59,0,0,0,9.31,3.87,16,16,0,0,0,1.94-.12c1.61-.2,4.08-.67,8.31-1.5s9.71-1.89,12.77-2.27c8.21-1,12.92-6.32,12.92-14.57a64.48,64.48,0,0,1,1.31-10.86c.23.28.47.56.71.82a2.09,2.09,0,0,0,.2.22l.19.21.2.22c.06.07.13.14.19.22l.2.21.2.22.19.21.2.22.19.21.2.22.2.22.19.21.2.22.19.21.2.22.2.21c.06.08.13.15.19.22l.2.22.19.21.2.22.2.21.19.22.2.21a2.09,2.09,0,0,0,.2.22c.06.07.13.14.19.22l.2.21.19.22.2.21.2.22.19.21.2.22.19.21.2.22.2.22.19.21.2.22.19.21.2.22.2.22.19.21.2.22.2.21c.06.07.12.15.19.22l.2.21c.06.08.13.15.19.22l.2.22.2.21.19.22.2.21.19.22c5,5.5,11.84,8.44,20,8.44h0a38.48,38.48,0,0,0,4.72-.3,45.84,45.84,0,0,0,24.62-11.12C220,268.85,226,270.9,233,270.9a41.24,41.24,0,0,0,5-.32,42.69,42.69,0,0,0,20.17-8.21A37.65,37.65,0,0,0,275.12,266a55.58,55.58,0,0,0,6.84-.43c12.64-1.55,22.72-6.69,29-14.26,4.53,4.82,11.31,7.6,19.55,7.6a41.15,41.15,0,0,0,5-.31,41.64,41.64,0,0,0,15.64-5.26,13.26,13.26,0,0,0,7.6,2.28,18.08,18.08,0,0,0,2.17-.14c1.63-.2,3.76-.64,6.45-1.19,3.14-.65,7-1.45,10.1-1.83,8.21-1,13.12-6.46,13.12-14.59a20.71,20.71,0,0,1,.16-2.28l.1.11.2.21.2.22.19.21.2.22.19.22.2.21.2.22.19.21.2.22.19.21.2.22.2.22.19.21.2.22.19.21.2.22.2.21c.06.08.13.15.19.22l.2.22.19.21.2.22.2.21.19.22.2.21c4.46,4.83,11.17,7.75,19.07,7.75l1,0a37.64,37.64,0,0,0-1.46,10.51,27.79,27.79,0,0,0,7,18.89l.19.21.2.22.2.21c.06.08.13.15.19.22l.2.22.19.21.2.22.2.21c.06.08.13.15.19.22l.2.22.2.21c.06.07.13.14.19.22l.2.21.19.22.2.21c.06.08.13.15.19.22l.2.21.2.22c.06.07.13.14.19.22l.2.21.2.22.19.21.2.22.19.21.2.22.2.22.19.21.2.22.19.21.2.22.2.21c.06.08.13.15.19.22l.2.22.19.21a2.09,2.09,0,0,1,.2.22l.2.21c.06.08.13.15.19.22l.2.21c.06.08.13.15.19.22a2.09,2.09,0,0,1,.2.22l.2.21c.06.07.13.14.19.22l.2.21.2.22.19.21.2.22c.06.07.13.14.19.22l.2.21.2.22.19.21a27.15,27.15,0,0,0,3.47,3.3c5.81,4.63,13.44,7.08,22.07,7.08a47.08,47.08,0,0,0,5.65-.35c18.94-2.33,33.15-14,42.23-34.82,7.1-16.22,10.07-35.59,12.46-51.15l.27-1.8c3.53-22.9,6.26-32.26,7.57-36.75a25.37,25.37,0,0,0,1.42-7.43A12.8,12.8,0,0,0,522.65,157.76ZM199.21,220.68a92.79,92.79,0,0,0-4.89-11.6,77.84,77.84,0,0,0,9.44-6.05,72,72,0,0,1-2.14,8.77c-.76,2.7-1.59,5.66-2.32,8.78Z"/>
      <path class="cls-1" d="M805.63,124.72l-.2-.21c-.06-.08-.13-.14-.2-.22l-.19-.21a2.09,2.09,0,0,0-.2-.22l-.19-.21-.2-.22-.2-.22-.19-.21c-.06-.08-.13-.14-.2-.22l-.19-.21-.2-.22-.2-.21c-.06-.08-.13-.15-.19-.22l-.2-.22-.19-.21c-.07-.08-.14-.14-.2-.22l-.2-.21c-.06-.08-.13-.14-.19-.22l-.2-.21a2.09,2.09,0,0,0-.2-.22l-.19-.21a2.09,2.09,0,0,0-.2-.22c-.06-.08-.13-.14-.19-.22l-.2-.21c-.06-.08-.13-.14-.2-.22l-.19-.21a2.09,2.09,0,0,0-.2-.22c-.06-.07-.13-.14-.19-.22l-.2-.21c-.06-.08-.13-.14-.2-.22l-.19-.21c-.06-.08-.13-.14-.2-.22l-.19-.21-.2-.22-.2-.21c-.06-.08-.13-.15-.19-.22l-.2-.22-.19-.21c-.07-.08-.14-.14-.2-.22l-.2-.21c-.06-.08-.13-.15-.19-.22l-.2-.21c-.06-.08-.13-.15-.19-.22a2.09,2.09,0,0,1-.2-.22l-.2-.21c-.06-.08-.13-.14-.19-.22l-.2-.21a2.09,2.09,0,0,0-.2-.22l-.19-.21a2.09,2.09,0,0,0-.2-.22,14.94,14.94,0,0,0-11.76-5.06,23.08,23.08,0,0,0-2.93.19c-5.61.69-21.1,3.3-27.66,11.51l0,0-.2-.21-.2-.22-.19-.21-.2-.22-.19-.21-.2-.22-.2-.22-.19-.21a15.1,15.1,0,0,0-11.36-4.6,25,25,0,0,0-2.93.18c-4.82.6-16.94,2.61-24.42,8.39a14.39,14.39,0,0,0-10.34-4l-1,0a74.46,74.46,0,0,0,1.86-13.79c0-7-2.37-12.93-6.5-17l-.2-.21c-.07-.07-.13-.15-.19-.22s-.13-.15-.2-.21l-.2-.22c-.06-.07-.12-.15-.19-.22s-.13-.14-.2-.21-.13-.15-.19-.22l-.2-.21-.2-.22a1.9,1.9,0,0,0-.19-.21l-.2-.22c-.07-.07-.13-.15-.19-.22s-.13-.14-.2-.21l-.2-.22-.19-.21-.2-.22c-.07-.07-.13-.15-.2-.21s-.12-.15-.19-.22l-.2-.22c-.07-.06-.12-.14-.19-.21l-.2-.22-.2-.21c-.06-.07-.12-.15-.19-.22s-.13-.15-.2-.21-.13-.15-.19-.22l-.2-.22c-.07-.06-.13-.14-.2-.21s-.12-.15-.19-.22l-.2-.21c-.07-.07-.13-.15-.19-.22l-.2-.21-.2-.22a1.9,1.9,0,0,0-.19-.21l-.2-.22c-.07-.07-.13-.15-.19-.22l-.2-.21-.2-.22-.19-.21-.2-.22c-.07-.07-.13-.15-.2-.21s-.12-.15-.19-.22l-.2-.22-.19-.21-.2-.22-.2-.21c-.06-.07-.12-.15-.19-.22s-.13-.15-.2-.21-.12-.15-.19-.22l-.2-.22-.2-.21c-4.13-4.24-10.08-6.69-17.22-6.69a35.89,35.89,0,0,0-4.44.28,47.13,47.13,0,0,0-15.43,5l-.16-.17-.19-.21-.2-.22c-.06-.07-.13-.14-.19-.22l-.2-.21c-.06-.08-.13-.14-.2-.22l-.19-.21-.2-.22-.2-.21c-.06-.08-.13-.15-.19-.22l-.2-.22-.19-.21c-.07-.08-.14-.14-.2-.22l-.2-.21c-.06-.08-.13-.14-.19-.22l-.2-.21c-.06-.08-.13-.15-.19-.22a2.09,2.09,0,0,1-.2-.22l-.2-.21c-.06-.08-.13-.14-.19-.22l-.2-.21c-.06-.08-.13-.14-.19-.22l-.2-.21a2.09,2.09,0,0,0-.2-.22c-.06-.07-.13-.14-.19-.22l-.2-.21c-.06-.08-.13-.14-.19-.22l-.2-.21c-.06-.08-.13-.14-.2-.22C639.41,63.46,631.22,60,620.81,60a54.85,54.85,0,0,0-6.74.43c-22.41,2.75-46.61,21.68-46.61,47.47,0,13.79,7,23.24,13.24,31.58q.6.83,1.2,1.62c-.44,0-.89,0-1.36,0a42.36,42.36,0,0,0-5.08.34c-17.47,2.15-42.08,16.23-42.08,40.81a33.86,33.86,0,0,0,8.91,23.49l.2.22.2.21c.06.07.12.15.19.22l.2.21c.06.08.13.15.19.22l.2.22.2.21.19.22.2.21.19.22.2.21.2.22c.06.07.13.14.19.22l.2.21.19.22.2.21.2.22.19.21.2.22c.06.07.13.14.19.22l.2.21.2.22.19.21.2.22.19.21.2.22.2.21c.06.08.13.15.19.22l.2.22.2.21.19.22.2.21.19.22.2.21.2.22c.06.07.13.14.19.22l.2.21.19.22.2.21.2.22.19.21.2.22c.06.07.13.14.19.22l.2.21.2.22.19.21.2.22.2.21a2,2,0,0,0,.19.22l.2.22a33.42,33.42,0,0,0,4.51,4.11c7.43,5.64,17.33,8.62,28.64,8.62a66.7,66.7,0,0,0,8.16-.51A69.05,69.05,0,0,0,635,208.16l.09.09h0l.19.21h0c.06.08.14.14.2.22h0l.19.21h0c.07.08.14.14.2.22h0l.2.21h0c.06.08.13.14.19.22h0c.06.08.14.14.2.21h0c.12.15.26.28.39.43h0l.2.21h0c.06.08.13.14.19.22h0l.2.21h0a5.39,5.39,0,0,0,.39.43h0a2.09,2.09,0,0,0,.2.22h0c.06.08.13.14.19.22h0l.2.21h0c.06.08.13.14.2.22h0l.19.21h0c.06.08.13.14.2.22h0c.06.08.13.14.19.21h0l.2.22h0c.06.08.13.14.2.22h0c.12.15.26.28.39.43h0l.19.21h0c.07.08.14.14.2.22h0l.2.21h0c.06.08.13.15.19.22h0c.06.08.14.14.2.22h0l.19.21h0c.07.08.14.14.2.22h0a12.5,12.5,0,0,0,9.93,4.56,16,16,0,0,0,2-.13c1.72-.21,4-.66,6.79-1.24,3.34-.68,7.12-1.45,10.15-1.82,5.57-.69,9.53-3.35,11.5-7.57a21.76,21.76,0,0,0,14.51,5.17,26.48,26.48,0,0,0,2.65-.15,37.39,37.39,0,0,0-1.42,10.34,27.79,27.79,0,0,0,7,18.9l.19.21.2.22.2.21c.06.08.13.15.19.22l.2.21c.06.08.13.15.19.22l.2.22.2.21c.06.07.13.14.19.22l.2.21c.06.08.13.15.19.22l.2.21a2.09,2.09,0,0,0,.2.22l.19.21.2.22c.06.07.13.14.19.22l.2.21.2.22.19.21.2.22.2.22.19.21.2.22.19.21.2.22.2.21c.06.08.13.15.19.22l.2.22.19.21.2.22.2.21c.06.08.13.15.19.22l.2.21c.06.08.13.15.19.22a2.09,2.09,0,0,1,.2.22l.2.21c.06.07.13.14.19.22l.2.21.19.22.2.21a2.09,2.09,0,0,0,.2.22c.06.07.13.14.19.22l.2.21.2.22.19.21.2.22.19.21.2.22.19.21.2.22a27.87,27.87,0,0,0,3.47,3.3c5.81,4.63,13.44,7.08,22.07,7.08a45.13,45.13,0,0,0,5.65-.36c42.07-5.16,50-53.25,55.29-85.08l.44-2.65c3.15-18.83,5.14-27.32,6.33-32.39.93-4,1.49-6.38,1.49-9.61A14.31,14.31,0,0,0,805.63,124.72ZM636,128a24.82,24.82,0,0,0,2.57-.17,22.65,22.65,0,0,0,4.65-1.09c-.53,2.78-1.13,5.6-1.76,8.43C639.61,132.6,637.75,130.23,636,128Z"/>
    </g>
    <g>
      <path class="cls-2" d="M502.65,137.76l-.19-.22-.2-.21-.2-.22c-.06-.07-.12-.15-.19-.22l-.2-.21-.19-.22-.2-.21-.2-.22-.19-.21-.2-.22-.19-.22-.2-.21-.2-.22-.19-.21-.2-.22-.19-.21-.2-.22c-.07-.07-.13-.15-.2-.21a2,2,0,0,0-.19-.22l-.2-.22-.19-.21-.2-.22-.2-.21-.19-.22c-.07-.07-.13-.15-.2-.21l-.2-.22c-.06-.07-.12-.15-.19-.22l-.2-.21-.19-.22-.2-.21-.2-.22-.19-.21-.2-.22-.19-.22-.2-.21-.2-.22-.19-.21-.2-.22-.19-.21-.2-.22-.2-.22-.19-.21-.2-.22-.19-.21-.2-.22-.2-.21a2,2,0,0,0-.19-.22l-.2-.22-.19-.21-.2-.22a12,12,0,0,0-8.94-3.75,16.12,16.12,0,0,0-1.93.12c-4.5.56-8.69,2.48-12.06,4-1,.48-2.46,1.14-3.38,1.49l-.52-.14a40.51,40.51,0,0,0-11.47-1.66,47.9,47.9,0,0,0-5.86.37c-16.83,2.07-29,9.62-37,19.64l-.19-.2c-.06-.08-.13-.15-.19-.22l-.2-.21a2.09,2.09,0,0,0-.2-.22l-.19-.21-.2-.22c-.06-.07-.13-.14-.19-.22l-.2-.21a2.09,2.09,0,0,0-.2-.22l-.19-.21-.2-.22-.19-.21-.2-.22-.2-.22-.19-.21-.2-.22-.2-.21c-.06-.08-.13-.15-.19-.22L408,143c-.06-.08-.13-.15-.19-.22l-.2-.22-.2-.21c-.06-.07-.13-.14-.19-.22l-.2-.21c-.06-.08-.13-.15-.19-.22-3.76-4.31-9.54-6.78-16.74-6.78a39.18,39.18,0,0,0-4.83.31c-6.74.83-13.12,3.86-18.52,7.46A15.57,15.57,0,0,0,356.18,139a23.29,23.29,0,0,0-2.84.18,75.66,75.66,0,0,0-11.66,2.37,24.33,24.33,0,0,0,.38-4.25,19.16,19.16,0,0,0-5.43-13.78l-.2-.22-.2-.21c-.06-.07-.12-.15-.19-.22s-.13-.15-.2-.21-.13-.15-.19-.22l-.2-.22-.2-.21c-.06-.07-.12-.15-.19-.22l-.2-.21-.2-.22a1.9,1.9,0,0,0-.19-.21l-.2-.22c-.06-.07-.12-.15-.19-.22l-.2-.21-.2-.22-.19-.21-.2-.22c-.07-.07-.12-.15-.19-.21l-.2-.22-.2-.22-.19-.21-.2-.22-.19-.21-.2-.22c-.07-.07-.13-.15-.2-.21s-.12-.15-.19-.22-.13-.15-.2-.21-.13-.15-.19-.22l-.2-.22-.2-.21c-.06-.07-.12-.15-.19-.22l-.2-.21c-.07-.07-.13-.15-.19-.22l-.2-.22c-.07-.06-.13-.14-.2-.21s-.12-.15-.19-.22l-.2-.21c-.07-.07-.13-.15-.19-.22l-.2-.21-.2-.22a1.9,1.9,0,0,0-.19-.21l-.2-.22-.2-.22L328,114l-.2-.22-.19-.21-.2-.22c-.07-.07-.13-.15-.2-.21s-.12-.15-.19-.22l-.2-.22a19.05,19.05,0,0,0-13.94-5.63,25,25,0,0,0-3.08.19c-12.22,1.5-23.36,14.78-23.36,27.87A19.18,19.18,0,0,0,291.26,148l.2.22.19.21.2.22.2.22.19.21.15.17a26,26,0,0,0-8.53,5.83c-4-3.42-9.93-5.71-18.24-5.71a57.42,57.42,0,0,0-6.84.44,55.64,55.64,0,0,0-14.62,3.78,25,25,0,0,0,.38-4.31,19.18,19.18,0,0,0-5.43-13.78l-.19-.21-.2-.22-.2-.22-.19-.21-.2-.22-.19-.21-.2-.22c-.07-.07-.13-.15-.2-.21s-.12-.15-.19-.22l-.2-.22-.19-.21-.2-.22-.2-.21c-.06-.07-.12-.15-.19-.22s-.13-.15-.2-.21-.13-.15-.19-.22l-.2-.22c-.07-.06-.13-.14-.2-.21s-.12-.15-.19-.22l-.2-.21-.2-.22-.19-.21-.2-.22c-.07-.07-.13-.15-.19-.22s-.13-.14-.2-.21l-.2-.22-.19-.21-.2-.22-.19-.21-.2-.22c-.07-.07-.13-.15-.2-.21s-.12-.15-.19-.22l-.2-.22-.19-.21-.2-.22-.2-.21c-.06-.07-.12-.15-.19-.22s-.13-.15-.2-.21l-.2-.22c-.06-.07-.12-.15-.19-.22l-.2-.21c-.06-.07-.12-.15-.19-.22l-.2-.21-.2-.22a1.9,1.9,0,0,0-.19-.21l-.2-.22c-.07-.07-.12-.15-.19-.22l-.2-.21-.2-.22-.19-.21A19.08,19.08,0,0,0,215.37,119a25,25,0,0,0-3.08.19,23,23,0,0,0-10,3.92,30.64,30.64,0,0,0-2.85-3.85l-.2-.21a2.09,2.09,0,0,0-.2-.22c-.06-.07-.13-.14-.19-.22l-.2-.21c-.06-.07-.13-.14-.19-.22l-.2-.21a2.09,2.09,0,0,0-.2-.22l-.19-.21-.2-.22-.2-.22-.19-.21-.2-.22-.19-.21-.2-.22-.2-.21c-.06-.08-.13-.15-.19-.22l-.2-.22-.19-.21a2.09,2.09,0,0,1-.2-.22l-.2-.21c-.06-.08-.13-.14-.19-.22l-.2-.21c-.06-.08-.13-.15-.19-.22a2.09,2.09,0,0,1-.2-.22l-.2-.21c-.06-.07-.13-.14-.19-.22l-.2-.21c-.06-.08-.13-.14-.19-.22l-.2-.21a2.09,2.09,0,0,0-.2-.22l-.19-.21-.2-.22-.2-.22-.19-.21c-.06-.08-.13-.14-.2-.22l-.19-.21-.2-.22-.19-.21-.2-.22-.2-.22-.19-.21a2.09,2.09,0,0,1-.2-.22L191,110c-.06-.08-.13-.15-.19-.22l-.2-.21c-.06-.08-.13-.15-.19-.22a2.09,2.09,0,0,1-.2-.22l-.2-.21c-.06-.08-.13-.14-.19-.22l-.2-.21c-7.32-8.5-19.76-13.21-36.18-13.21a109.71,109.71,0,0,0-13.26.86c-26.33,3.23-50.85,11.86-69,24.31C51.06,134.2,40,151.76,40,169.91c0,8.77,2.8,16.1,7.69,21.23l.2.22.19.21.2.22.19.21.2.22.2.21.19.22.2.21c.06.08.13.15.19.22l.2.22.2.21.19.22.2.21c.07.07.13.15.19.22l.2.21.2.22.19.22.2.21.2.22.19.21.2.22.19.21.2.22.2.22.19.21.2.22L53,197l.2.22.2.21c.06.08.13.15.19.22l.2.22L54,198l.2.22.2.21.19.22.2.21.2.22.19.21.2.22.19.22.2.21.2.22.19.21.2.22.19.21.2.22.2.22.19.21.2.22.19.21c4.89,5.26,11.91,8.28,20.34,8.28a36.86,36.86,0,0,0,3.89-.23c-4.16,16.09-6.26,26.11-6.26,30.84a14.76,14.76,0,0,0,2.92,9.36,13.07,13.07,0,0,0,1,1.11c.07.07.13.15.2.21a2,2,0,0,0,.19.22l.2.22.2.21c.06.07.12.15.19.22s.13.15.2.21l.19.22c.07.07.13.15.2.21l.2.22c.06.07.12.15.19.22l.2.21.19.22.2.21.2.22a1.9,1.9,0,0,0,.19.21l.2.22.19.22.2.21.2.22.19.21.2.22.19.21.2.22.2.22.19.21.2.22.19.21.2.22c.07.07.13.15.2.21s.12.15.19.22l.2.22.2.21c.06.07.12.15.19.22l.2.21.19.22c.07.07.13.15.2.21l.2.22c.06.07.12.15.19.22l.2.21.19.22.2.21.2.22a1.9,1.9,0,0,0,.19.21l.2.22.19.21.2.22.2.22.19.21.2.22.19.21a12.59,12.59,0,0,0,9.31,3.87,16,16,0,0,0,1.94-.12c1.61-.2,4.08-.67,8.31-1.5s9.71-1.89,12.77-2.27c8.21-1,12.92-6.32,12.92-14.57a64.48,64.48,0,0,1,1.31-10.86c.23.28.47.56.71.82a2.09,2.09,0,0,0,.2.22l.19.21.2.22c.06.07.13.14.19.22l.2.21.2.22.19.21.2.22.19.21.2.22.2.22.19.21.2.22.19.21.2.22.2.21c.06.08.13.15.19.22l.2.22.19.21.2.22.2.21.19.22.2.21a2.09,2.09,0,0,0,.2.22c.06.07.13.14.19.22l.2.21.19.22.2.21.2.22.19.21.2.22.19.21.2.22.2.22.19.21.2.22.19.21.2.22.2.22.19.21.2.22.2.21c.06.07.12.15.19.22l.2.21c.06.08.13.15.19.22l.2.22.2.21.19.22.2.21.19.22c5,5.5,11.84,8.44,20,8.44h0a38.48,38.48,0,0,0,4.72-.3,45.84,45.84,0,0,0,24.62-11.12C200,248.85,206,250.9,213,250.9a41.24,41.24,0,0,0,5-.32,42.69,42.69,0,0,0,20.17-8.21A37.65,37.65,0,0,0,255.12,246a55.58,55.58,0,0,0,6.84-.43c12.64-1.55,22.72-6.69,29-14.26,4.53,4.82,11.31,7.6,19.55,7.6a41.15,41.15,0,0,0,5-.31,41.64,41.64,0,0,0,15.64-5.26,13.26,13.26,0,0,0,7.6,2.28,18.08,18.08,0,0,0,2.17-.14c1.63-.2,3.76-.64,6.45-1.19,3.14-.65,7-1.45,10.1-1.83,8.21-1,13.12-6.46,13.12-14.59a20.71,20.71,0,0,1,.16-2.28l.1.11.2.21.2.22.19.21.2.22.19.22.2.21.2.22.19.21.2.22.19.21.2.22.2.22.19.21.2.22.19.21.2.22.2.21c.06.08.13.15.19.22l.2.22.19.21.2.22.2.21.19.22.2.21c4.46,4.83,11.17,7.75,19.07,7.75l1,0a37.64,37.64,0,0,0-1.46,10.51,27.79,27.79,0,0,0,7,18.89l.19.21.2.22.2.21c.06.08.13.15.19.22l.2.22.19.21.2.22.2.21c.06.08.13.15.19.22l.2.22.2.21c.06.07.13.14.19.22l.2.21.19.22.2.21c.06.08.13.15.19.22l.2.21.2.22c.06.07.13.14.19.22l.2.21.2.22.19.21.2.22.19.21.2.22.2.22.19.21.2.22.19.21.2.22.2.21c.06.08.13.15.19.22l.2.22.19.21a2.09,2.09,0,0,1,.2.22l.2.21c.06.08.13.15.19.22l.2.21c.06.08.13.15.19.22a2.09,2.09,0,0,1,.2.22l.2.21c.06.07.13.14.19.22l.2.21.2.22.19.21.2.22c.06.07.13.14.19.22l.2.21.2.22.19.21a27.15,27.15,0,0,0,3.47,3.3c5.81,4.63,13.44,7.08,22.07,7.08a47.08,47.08,0,0,0,5.65-.35c18.94-2.33,33.15-14,42.23-34.82,7.1-16.22,10.07-35.59,12.46-51.15l.27-1.8c3.53-22.9,6.26-32.26,7.57-36.75a25.37,25.37,0,0,0,1.42-7.43A12.8,12.8,0,0,0,502.65,137.76ZM179.21,200.68a92.79,92.79,0,0,0-4.89-11.6,77.84,77.84,0,0,0,9.44-6.05,72,72,0,0,1-2.14,8.77c-.76,2.7-1.59,5.66-2.32,8.78Z"/>
      <path class="cls-2" d="M785.63,104.72l-.2-.21c-.06-.08-.13-.14-.2-.22l-.19-.21a2.09,2.09,0,0,0-.2-.22l-.19-.21-.2-.22-.2-.22-.19-.21c-.06-.08-.13-.14-.2-.22l-.19-.21-.2-.22-.2-.21c-.06-.08-.13-.15-.19-.22l-.2-.22-.19-.21c-.07-.08-.14-.14-.2-.22l-.2-.21c-.06-.08-.13-.14-.19-.22l-.2-.21a2.09,2.09,0,0,0-.2-.22l-.19-.21a2.09,2.09,0,0,0-.2-.22c-.06-.08-.13-.14-.19-.22l-.2-.21c-.06-.08-.13-.14-.2-.22l-.19-.21a2.09,2.09,0,0,0-.2-.22c-.06-.07-.13-.14-.19-.22l-.2-.21c-.06-.08-.13-.14-.2-.22l-.19-.21c-.06-.08-.13-.14-.2-.22l-.19-.21-.2-.22-.2-.21c-.06-.08-.13-.15-.19-.22l-.2-.22-.19-.21c-.07-.08-.14-.14-.2-.22l-.2-.21c-.06-.08-.13-.15-.19-.22l-.2-.21c-.06-.08-.13-.15-.19-.22a2.09,2.09,0,0,1-.2-.22l-.2-.21c-.06-.08-.13-.14-.19-.22l-.2-.21a2.09,2.09,0,0,0-.2-.22l-.19-.21a2.09,2.09,0,0,0-.2-.22,14.94,14.94,0,0,0-11.76-5.06,23.08,23.08,0,0,0-2.93.19c-5.61.69-21.1,3.3-27.66,11.51l0,0-.2-.21-.2-.22-.19-.21-.2-.22-.19-.21-.2-.22-.2-.22-.19-.21a15.1,15.1,0,0,0-11.36-4.6,25,25,0,0,0-2.93.18c-4.82.6-16.94,2.61-24.42,8.39a14.39,14.39,0,0,0-10.34-4l-1,0a74.46,74.46,0,0,0,1.86-13.79c0-7-2.37-12.93-6.5-17l-.2-.21c-.07-.07-.13-.15-.19-.22s-.13-.15-.2-.21l-.2-.22c-.06-.07-.12-.15-.19-.22s-.13-.14-.2-.21-.13-.15-.19-.22l-.2-.21-.2-.22a1.9,1.9,0,0,0-.19-.21l-.2-.22c-.07-.07-.13-.15-.19-.22s-.13-.14-.2-.21l-.2-.22-.19-.21-.2-.22c-.07-.07-.13-.15-.2-.21s-.12-.15-.19-.22l-.2-.22c-.07-.06-.12-.14-.19-.21l-.2-.22-.2-.21c-.06-.07-.12-.15-.19-.22s-.13-.15-.2-.21-.13-.15-.19-.22l-.2-.22c-.07-.06-.13-.14-.2-.21s-.12-.15-.19-.22l-.2-.21c-.07-.07-.13-.15-.19-.22l-.2-.21-.2-.22a1.9,1.9,0,0,0-.19-.21l-.2-.22c-.07-.07-.13-.15-.19-.22l-.2-.21-.2-.22-.19-.21-.2-.22c-.07-.07-.13-.15-.2-.21s-.12-.15-.19-.22l-.2-.22-.19-.21-.2-.22-.2-.21c-.06-.07-.12-.15-.19-.22s-.13-.15-.2-.21-.12-.15-.19-.22l-.2-.22-.2-.21c-4.13-4.24-10.08-6.69-17.22-6.69a35.89,35.89,0,0,0-4.44.28,47.13,47.13,0,0,0-15.43,5l-.16-.17-.19-.21-.2-.22c-.06-.07-.13-.14-.19-.22l-.2-.21c-.06-.08-.13-.14-.2-.22l-.19-.21-.2-.22-.2-.21c-.06-.08-.13-.15-.19-.22l-.2-.22-.19-.21c-.07-.08-.14-.14-.2-.22l-.2-.21c-.06-.08-.13-.14-.19-.22l-.2-.21c-.06-.08-.13-.15-.19-.22a2.09,2.09,0,0,1-.2-.22l-.2-.21c-.06-.08-.13-.14-.19-.22l-.2-.21c-.06-.08-.13-.14-.19-.22l-.2-.21a2.09,2.09,0,0,0-.2-.22c-.06-.07-.13-.14-.19-.22l-.2-.21c-.06-.08-.13-.14-.19-.22l-.2-.21c-.06-.08-.13-.14-.2-.22C619.41,43.46,611.22,40,600.81,40a54.85,54.85,0,0,0-6.74.43c-22.41,2.75-46.61,21.68-46.61,47.47,0,13.79,7,23.24,13.24,31.58q.6.83,1.2,1.62c-.44,0-.89,0-1.36,0a42.36,42.36,0,0,0-5.08.34c-17.47,2.15-42.08,16.23-42.08,40.81a33.86,33.86,0,0,0,8.91,23.49l.2.22.2.21c.06.07.12.15.19.22l.2.21c.06.08.13.15.19.22l.2.22.2.21.19.22.2.21.19.22.2.21.2.22c.06.07.13.14.19.22l.2.21.19.22.2.21.2.22.19.21.2.22c.06.07.13.14.19.22l.2.21.2.22.19.21.2.22.19.21.2.22.2.21c.06.08.13.15.19.22l.2.22.2.21.19.22.2.21.19.22.2.21.2.22c.06.07.13.14.19.22l.2.21.19.22.2.21.2.22.19.21.2.22c.06.07.13.14.19.22l.2.21.2.22.19.21.2.22.2.21a2,2,0,0,0,.19.22l.2.22a33.42,33.42,0,0,0,4.51,4.11c7.43,5.64,17.33,8.62,28.64,8.62a66.7,66.7,0,0,0,8.16-.51A69.05,69.05,0,0,0,615,188.16l.09.09h0l.19.21h0c.06.08.14.14.2.22h0l.19.21h0c.07.08.14.14.2.22h0l.2.21h0c.06.08.13.14.19.22h0c.06.08.14.14.2.21h0c.12.15.26.28.39.43h0l.2.21h0c.06.08.13.14.19.22h0l.2.21h0a5.39,5.39,0,0,0,.39.43h0a2.09,2.09,0,0,0,.2.22h0c.06.08.13.14.19.22h0l.2.21h0c.06.08.13.14.2.22h0l.19.21h0c.06.08.13.14.2.22h0c.06.08.13.14.19.21h0l.2.22h0c.06.08.13.14.2.22h0c.12.15.26.28.39.43h0l.19.21h0c.07.08.14.14.2.22h0l.2.21h0c.06.08.13.15.19.22h0c.06.08.14.14.2.22h0l.19.21h0c.07.08.14.14.2.22h0a12.5,12.5,0,0,0,9.93,4.56,16,16,0,0,0,2-.13c1.72-.21,4-.66,6.79-1.24,3.34-.68,7.12-1.45,10.15-1.82,5.57-.69,9.53-3.35,11.5-7.57a21.76,21.76,0,0,0,14.51,5.17,26.48,26.48,0,0,0,2.65-.15,37.39,37.39,0,0,0-1.42,10.34,27.79,27.79,0,0,0,7,18.9l.19.21.2.22.2.21c.06.08.13.15.19.22l.2.21c.06.08.13.15.19.22l.2.22.2.21c.06.07.13.14.19.22l.2.21c.06.08.13.15.19.22l.2.21a2.09,2.09,0,0,0,.2.22l.19.21.2.22c.06.07.13.14.19.22l.2.21.2.22.19.21.2.22.2.22.19.21.2.22.19.21.2.22.2.21c.06.08.13.15.19.22l.2.22.19.21.2.22.2.21c.06.08.13.15.19.22l.2.21c.06.08.13.15.19.22a2.09,2.09,0,0,1,.2.22l.2.21c.06.07.13.14.19.22l.2.21.19.22.2.21a2.09,2.09,0,0,0,.2.22c.06.07.13.14.19.22l.2.21.2.22.19.21.2.22.19.21.2.22.19.21.2.22a27.87,27.87,0,0,0,3.47,3.3c5.81,4.63,13.44,7.08,22.07,7.08a45.13,45.13,0,0,0,5.65-.36c42.07-5.16,50-53.25,55.29-85.08l.44-2.65c3.15-18.83,5.14-27.32,6.33-32.39.93-4,1.49-6.38,1.49-9.61A14.31,14.31,0,0,0,785.63,104.72ZM616,108a24.82,24.82,0,0,0,2.57-.17,22.65,22.65,0,0,0,4.65-1.09c-.53,2.78-1.13,5.6-1.76,8.43C619.61,112.6,617.75,110.23,616,108Z"/>
    </g>
    <g>
      <path class="cls-3" d="M482.65,117.76l-.19-.22-.2-.21-.2-.22c-.06-.07-.12-.15-.19-.22l-.2-.21-.19-.22-.2-.21-.2-.22-.19-.21-.2-.22-.19-.22-.2-.21-.2-.22-.19-.21-.2-.22-.19-.21-.2-.22c-.07-.07-.13-.15-.2-.21a2,2,0,0,0-.19-.22l-.2-.22-.19-.21-.2-.22-.2-.21-.19-.22c-.07-.07-.13-.15-.2-.21l-.2-.22c-.06-.07-.12-.15-.19-.22l-.2-.21-.19-.22-.2-.21-.2-.22-.19-.21-.2-.22-.19-.22-.2-.21-.2-.22-.19-.21-.2-.22-.19-.21-.2-.22-.2-.22-.19-.21-.2-.22-.19-.21-.2-.22-.2-.21a2,2,0,0,0-.19-.22l-.2-.22-.19-.21-.2-.22a12,12,0,0,0-8.94-3.75,16.12,16.12,0,0,0-1.93.12c-4.5.56-8.69,2.48-12.06,4-1,.48-2.46,1.14-3.38,1.49l-.52-.14a40.51,40.51,0,0,0-11.47-1.66,47.9,47.9,0,0,0-5.86.37c-16.83,2.07-29,9.62-37,19.64l-.19-.2c-.06-.08-.13-.15-.19-.22l-.2-.21a2.09,2.09,0,0,0-.2-.22l-.19-.21-.2-.22c-.06-.07-.13-.14-.19-.22l-.2-.21a2.09,2.09,0,0,0-.2-.22l-.19-.21-.2-.22-.19-.21-.2-.22-.2-.22-.19-.21-.2-.22-.2-.21c-.06-.08-.13-.15-.19-.22L388,123c-.06-.08-.13-.15-.19-.22l-.2-.22-.2-.21c-.06-.07-.13-.14-.19-.22l-.2-.21c-.06-.08-.13-.15-.19-.22-3.76-4.31-9.54-6.78-16.74-6.78a39.18,39.18,0,0,0-4.83.31c-6.74.83-13.12,3.86-18.52,7.46A15.57,15.57,0,0,0,336.18,119a23.29,23.29,0,0,0-2.84.18,75.66,75.66,0,0,0-11.66,2.37,24.33,24.33,0,0,0,.38-4.25,19.16,19.16,0,0,0-5.43-13.78l-.2-.22-.2-.21c-.06-.07-.12-.15-.19-.22s-.13-.15-.2-.21-.13-.15-.19-.22l-.2-.22-.2-.21c-.06-.07-.12-.15-.19-.22l-.2-.21-.2-.22a1.9,1.9,0,0,0-.19-.21l-.2-.22c-.06-.07-.12-.15-.19-.22l-.2-.21-.2-.22-.19-.21-.2-.22c-.07-.07-.12-.15-.19-.21l-.2-.22-.2-.22-.19-.21-.2-.22-.19-.21-.2-.22c-.07-.07-.13-.15-.2-.21s-.12-.15-.19-.22-.13-.15-.2-.21-.13-.15-.19-.22l-.2-.22-.2-.21c-.06-.07-.12-.15-.19-.22l-.2-.21c-.07-.07-.13-.15-.19-.22l-.2-.22c-.07-.06-.13-.14-.2-.21s-.12-.15-.19-.22l-.2-.21c-.07-.07-.13-.15-.19-.22l-.2-.21-.2-.22a1.9,1.9,0,0,0-.19-.21l-.2-.22-.2-.22L308,94l-.2-.22-.19-.21-.2-.22c-.07-.07-.13-.15-.2-.21s-.12-.15-.19-.22l-.2-.22a19.05,19.05,0,0,0-13.94-5.63,25,25,0,0,0-3.08.19c-12.22,1.5-23.36,14.78-23.36,27.87A19.18,19.18,0,0,0,271.26,128l.2.22.19.21.2.22.2.22.19.21.15.17a26,26,0,0,0-8.53,5.83c-4-3.42-9.93-5.71-18.24-5.71a57.42,57.42,0,0,0-6.84.44,55.64,55.64,0,0,0-14.62,3.78,25,25,0,0,0,.38-4.31,19.18,19.18,0,0,0-5.43-13.78l-.19-.21-.2-.22-.2-.22-.19-.21-.2-.22-.19-.21-.2-.22c-.07-.07-.13-.15-.2-.21s-.12-.15-.19-.22l-.2-.22-.19-.21-.2-.22-.2-.21c-.06-.07-.12-.15-.19-.22s-.13-.15-.2-.21-.13-.15-.19-.22l-.2-.22c-.07-.06-.13-.14-.2-.21s-.12-.15-.19-.22l-.2-.21-.2-.22-.19-.21-.2-.22c-.07-.07-.13-.15-.19-.22s-.13-.14-.2-.21l-.2-.22-.19-.21-.2-.22-.19-.21-.2-.22c-.07-.07-.13-.15-.2-.21s-.12-.15-.19-.22l-.2-.22-.19-.21-.2-.22-.2-.21c-.06-.07-.12-.15-.19-.22s-.13-.15-.2-.21l-.2-.22c-.06-.07-.12-.15-.19-.22l-.2-.21c-.06-.07-.12-.15-.19-.22l-.2-.21-.2-.22a1.9,1.9,0,0,0-.19-.21l-.2-.22c-.07-.07-.12-.15-.19-.22l-.2-.21-.2-.22-.19-.21A19.08,19.08,0,0,0,195.37,99a25,25,0,0,0-3.08.19,23,23,0,0,0-10,3.92,30.64,30.64,0,0,0-2.85-3.85l-.2-.21a2.09,2.09,0,0,0-.2-.22c-.06-.07-.13-.14-.19-.22l-.2-.21c-.06-.07-.13-.14-.19-.22l-.2-.21a2.09,2.09,0,0,0-.2-.22l-.19-.21-.2-.22-.2-.22-.19-.21-.2-.22-.19-.21-.2-.22-.2-.21c-.06-.08-.13-.15-.19-.22l-.2-.22-.19-.21a2.09,2.09,0,0,1-.2-.22l-.2-.21c-.06-.08-.13-.14-.19-.22l-.2-.21c-.06-.08-.13-.15-.19-.22a2.09,2.09,0,0,1-.2-.22l-.2-.21c-.06-.07-.13-.14-.19-.22l-.2-.21c-.06-.08-.13-.14-.19-.22l-.2-.21a2.09,2.09,0,0,0-.2-.22l-.19-.21-.2-.22-.2-.22-.19-.21c-.06-.08-.13-.14-.2-.22l-.19-.21-.2-.22L172,91.1l-.2-.22-.2-.22-.19-.21a2.09,2.09,0,0,1-.2-.22L171,90c-.06-.08-.13-.15-.19-.22l-.2-.21c-.06-.08-.13-.15-.19-.22a2.09,2.09,0,0,1-.2-.22l-.2-.21c-.06-.08-.13-.14-.19-.22l-.2-.21C162.31,80,149.87,75.3,133.45,75.3a109.71,109.71,0,0,0-13.26.86c-26.33,3.23-50.85,11.86-69,24.31C31.06,114.2,20,131.76,20,149.91c0,8.77,2.8,16.1,7.69,21.23l.2.22.19.21.2.22.19.21.2.22.2.21.19.22.2.21c.06.08.13.15.19.22l.2.22.2.21.19.22.2.21c.07.07.13.15.19.22l.2.21.2.22.19.22.2.21.2.22.19.21.2.22.19.21.2.22.2.22.19.21.2.22L33,177l.2.22.2.21c.06.08.13.15.19.22l.2.22L34,178l.2.22.2.21.19.22.2.21.2.22.19.21.2.22.19.22.2.21.2.22.19.21.2.22.19.21.2.22.2.22.19.21.2.22.19.21c4.89,5.26,11.91,8.28,20.34,8.28a36.86,36.86,0,0,0,3.89-.23c-4.16,16.09-6.26,26.11-6.26,30.84a14.76,14.76,0,0,0,2.92,9.36,13.07,13.07,0,0,0,1,1.11c.07.07.13.15.2.21a2,2,0,0,0,.19.22l.2.22.2.21c.06.07.12.15.19.22s.13.15.2.21l.19.22c.07.07.13.15.2.21l.2.22c.06.07.12.15.19.22l.2.21.19.22.2.21.2.22a1.9,1.9,0,0,0,.19.21l.2.22.19.22.2.21.2.22.19.21.2.22.19.21.2.22.2.22.19.21.2.22.19.21.2.22c.07.07.13.15.2.21s.12.15.19.22l.2.22.2.21c.06.07.12.15.19.22l.2.21.19.22c.07.07.13.15.2.21l.2.22c.06.07.12.15.19.22l.2.21.19.22.2.21.2.22a1.9,1.9,0,0,0,.19.21l.2.22.19.21.2.22.2.22.19.21.2.22.19.21a12.59,12.59,0,0,0,9.31,3.87,16,16,0,0,0,1.94-.12c1.61-.2,4.08-.67,8.31-1.5s9.71-1.89,12.77-2.27c8.21-1,12.92-6.32,12.92-14.57a64.48,64.48,0,0,1,1.31-10.86c.23.28.47.56.71.82a2.09,2.09,0,0,0,.2.22l.19.21.2.22c.06.07.13.14.19.22l.2.21.2.22.19.21.2.22.19.21.2.22.2.22.19.21.2.22.19.21.2.22.2.21c.06.08.13.15.19.22l.2.22.19.21.2.22.2.21.19.22.2.21a2.09,2.09,0,0,0,.2.22c.06.07.13.14.19.22l.2.21.19.22.2.21.2.22.19.21.2.22.19.21.2.22.2.22.19.21.2.22.19.21.2.22.2.22.19.21.2.22.2.21c.06.07.12.15.19.22l.2.21c.06.08.13.15.19.22l.2.22.2.21.19.22.2.21.19.22c5,5.5,11.84,8.44,20,8.44h0a38.48,38.48,0,0,0,4.72-.3,45.84,45.84,0,0,0,24.62-11.12C180,228.85,186,230.9,193,230.9a41.24,41.24,0,0,0,5-.32,42.69,42.69,0,0,0,20.17-8.21A37.65,37.65,0,0,0,235.12,226a55.58,55.58,0,0,0,6.84-.43c12.64-1.55,22.72-6.69,29-14.26,4.53,4.82,11.31,7.6,19.55,7.6a41.15,41.15,0,0,0,5-.31,41.64,41.64,0,0,0,15.64-5.26,13.26,13.26,0,0,0,7.6,2.28,18.08,18.08,0,0,0,2.17-.14c1.63-.2,3.76-.64,6.45-1.19,3.14-.65,7-1.45,10.1-1.83,8.21-1,13.12-6.46,13.12-14.59a20.71,20.71,0,0,1,.16-2.28l.1.11.2.21.2.22.19.21.2.22.19.22.2.21.2.22.19.21.2.22.19.21.2.22.2.22.19.21.2.22.19.21.2.22.2.21c.06.08.13.15.19.22l.2.22.19.21.2.22.2.21.19.22.2.21c4.46,4.83,11.17,7.75,19.07,7.75l1,0a37.64,37.64,0,0,0-1.46,10.51,27.79,27.79,0,0,0,7,18.89l.19.21.2.22.2.21c.06.08.13.15.19.22l.2.22.19.21.2.22.2.21c.06.08.13.15.19.22l.2.22.2.21c.06.07.13.14.19.22l.2.21.19.22.2.21c.06.08.13.15.19.22l.2.21.2.22c.06.07.13.14.19.22l.2.21.2.22.19.21.2.22.19.21.2.22.2.22.19.21.2.22.19.21.2.22.2.21c.06.08.13.15.19.22l.2.22.19.21a2.09,2.09,0,0,1,.2.22l.2.21c.06.08.13.15.19.22l.2.21c.06.08.13.15.19.22a2.09,2.09,0,0,1,.2.22l.2.21c.06.07.13.14.19.22l.2.21.2.22.19.21.2.22c.06.07.13.14.19.22l.2.21.2.22.19.21a27.15,27.15,0,0,0,3.47,3.3c5.81,4.63,13.44,7.08,22.07,7.08a47.08,47.08,0,0,0,5.65-.35c18.94-2.33,33.15-14,42.23-34.82,7.1-16.22,10.07-35.59,12.46-51.15l.27-1.8c3.53-22.9,6.26-32.26,7.57-36.75a25.37,25.37,0,0,0,1.42-7.43A12.8,12.8,0,0,0,482.65,117.76ZM159.21,180.68a92.79,92.79,0,0,0-4.89-11.6,77.84,77.84,0,0,0,9.44-6.05,72,72,0,0,1-2.14,8.77c-.76,2.7-1.59,5.66-2.32,8.78Z"/>
      <path class="cls-3" d="M765.63,84.72l-.2-.21c-.06-.08-.13-.14-.2-.22l-.19-.21a2.09,2.09,0,0,0-.2-.22l-.19-.21-.2-.22-.2-.22-.19-.21c-.06-.08-.13-.14-.2-.22l-.19-.21-.2-.22-.2-.21c-.06-.08-.13-.15-.19-.22l-.2-.22-.19-.21c-.07-.08-.14-.14-.2-.22l-.2-.21c-.06-.08-.13-.14-.19-.22l-.2-.21a2.09,2.09,0,0,0-.2-.22l-.19-.21a2.09,2.09,0,0,0-.2-.22c-.06-.08-.13-.14-.19-.22l-.2-.21c-.06-.08-.13-.14-.2-.22l-.19-.21a2.09,2.09,0,0,0-.2-.22c-.06-.07-.13-.14-.19-.22l-.2-.21c-.06-.08-.13-.14-.2-.22l-.19-.21c-.06-.08-.13-.14-.2-.22l-.19-.21-.2-.22-.2-.21c-.06-.08-.13-.15-.19-.22l-.2-.22-.19-.21c-.07-.08-.14-.14-.2-.22l-.2-.21c-.06-.08-.13-.15-.19-.22l-.2-.21c-.06-.08-.13-.15-.19-.22a2.09,2.09,0,0,1-.2-.22l-.2-.21c-.06-.08-.13-.14-.19-.22l-.2-.21a2.09,2.09,0,0,0-.2-.22l-.19-.21a2.09,2.09,0,0,0-.2-.22,14.94,14.94,0,0,0-11.76-5.06,23.08,23.08,0,0,0-2.93.19c-5.61.69-21.1,3.3-27.66,11.51l0,0-.2-.21-.2-.22-.19-.21-.2-.22-.19-.21-.2-.22-.2-.22-.19-.21a15.1,15.1,0,0,0-11.36-4.6,25,25,0,0,0-2.93.18c-4.82.6-16.94,2.61-24.42,8.39a14.39,14.39,0,0,0-10.34-4l-1,0a74.46,74.46,0,0,0,1.86-13.79c0-7-2.37-12.93-6.5-17l-.2-.21c-.07-.07-.13-.15-.19-.22s-.13-.15-.2-.21l-.2-.22c-.06-.07-.12-.15-.19-.22s-.13-.14-.2-.21-.13-.15-.19-.22l-.2-.21-.2-.22a1.9,1.9,0,0,0-.19-.21l-.2-.22c-.07-.07-.13-.15-.19-.22s-.13-.14-.2-.21l-.2-.22-.19-.21-.2-.22c-.07-.07-.13-.15-.2-.21s-.12-.15-.19-.22l-.2-.22c-.07-.06-.12-.14-.19-.21l-.2-.22-.2-.21c-.06-.07-.12-.15-.19-.22s-.13-.15-.2-.21-.13-.15-.19-.22l-.2-.22c-.07-.06-.13-.14-.2-.21s-.12-.15-.19-.22l-.2-.21c-.07-.07-.13-.15-.19-.22l-.2-.21-.2-.22a1.9,1.9,0,0,0-.19-.21l-.2-.22c-.07-.07-.13-.15-.19-.22l-.2-.21-.2-.22-.19-.21-.2-.22c-.07-.07-.13-.15-.2-.21s-.12-.15-.19-.22l-.2-.22-.19-.21-.2-.22-.2-.21c-.06-.07-.12-.15-.19-.22s-.13-.15-.2-.21-.12-.15-.19-.22l-.2-.22-.2-.21c-4.13-4.24-10.08-6.69-17.22-6.69a35.89,35.89,0,0,0-4.44.28,47.13,47.13,0,0,0-15.43,5l-.16-.17-.19-.21-.2-.22c-.06-.07-.13-.14-.19-.22l-.2-.21c-.06-.08-.13-.14-.2-.22l-.19-.21-.2-.22-.2-.21c-.06-.08-.13-.15-.19-.22l-.2-.22-.19-.21c-.07-.08-.14-.14-.2-.22l-.2-.21c-.06-.08-.13-.14-.19-.22l-.2-.21c-.06-.08-.13-.15-.19-.22a2.09,2.09,0,0,1-.2-.22l-.2-.21c-.06-.08-.13-.14-.19-.22l-.2-.21c-.06-.08-.13-.14-.19-.22l-.2-.21a2.09,2.09,0,0,0-.2-.22c-.06-.07-.13-.14-.19-.22l-.2-.21c-.06-.08-.13-.14-.19-.22l-.2-.21c-.06-.08-.13-.14-.2-.22C599.41,23.46,591.22,20,580.81,20a54.85,54.85,0,0,0-6.74.43c-22.41,2.75-46.61,21.68-46.61,47.47,0,13.79,7,23.24,13.24,31.58q.6.83,1.2,1.62c-.44,0-.89,0-1.36,0a42.36,42.36,0,0,0-5.08.34c-17.47,2.15-42.08,16.23-42.08,40.81a33.86,33.86,0,0,0,8.91,23.49l.2.22.2.21c.06.07.12.15.19.22l.2.21c.06.08.13.15.19.22l.2.22.2.21.19.22.2.21.19.22.2.21.2.22c.06.07.13.14.19.22l.2.21.19.22.2.21.2.22.19.21.2.22c.06.07.13.14.19.22l.2.21.2.22.19.21.2.22.19.21.2.22.2.21c.06.08.13.15.19.22l.2.22.2.21.19.22.2.21.19.22.2.21.2.22c.06.07.13.14.19.22l.2.21.19.22.2.21.2.22.19.21.2.22c.06.07.13.14.19.22l.2.21.2.22.19.21.2.22.2.21a2,2,0,0,0,.19.22l.2.22a33.42,33.42,0,0,0,4.51,4.11c7.43,5.64,17.33,8.62,28.64,8.62a66.7,66.7,0,0,0,8.16-.51A69.05,69.05,0,0,0,595,168.16l.09.09h0l.19.21h0c.06.08.14.14.2.22h0l.19.21h0c.07.08.14.14.2.22h0l.2.21h0c.06.08.13.14.19.22h0c.06.08.14.14.2.21h0c.12.15.26.28.39.43h0l.2.21h0c.06.08.13.14.19.22h0l.2.21h0a5.39,5.39,0,0,0,.39.43h0a2.09,2.09,0,0,0,.2.22h0c.06.08.13.14.19.22h0l.2.21h0c.06.08.13.14.2.22h0l.19.21h0c.06.08.13.14.2.22h0c.06.08.13.14.19.21h0l.2.22h0c.06.08.13.14.2.22h0c.12.15.26.28.39.43h0l.19.21h0c.07.08.14.14.2.22h0l.2.21h0c.06.08.13.15.19.22h0c.06.08.14.14.2.22h0l.19.21h0c.07.08.14.14.2.22h0a12.5,12.5,0,0,0,9.93,4.56,16,16,0,0,0,2-.13c1.72-.21,4-.66,6.79-1.24,3.34-.68,7.12-1.45,10.15-1.82,5.57-.69,9.53-3.35,11.5-7.57a21.76,21.76,0,0,0,14.51,5.17,26.48,26.48,0,0,0,2.65-.15,37.39,37.39,0,0,0-1.42,10.34,27.79,27.79,0,0,0,7,18.9l.19.21.2.22.2.21c.06.08.13.15.19.22l.2.21c.06.08.13.15.19.22l.2.22.2.21c.06.07.13.14.19.22l.2.21c.06.08.13.15.19.22l.2.21a2.09,2.09,0,0,0,.2.22l.19.21.2.22c.06.07.13.14.19.22l.2.21.2.22.19.21.2.22.2.22.19.21.2.22.19.21.2.22.2.21c.06.08.13.15.19.22l.2.22.19.21.2.22.2.21c.06.08.13.15.19.22l.2.21c.06.08.13.15.19.22a2.09,2.09,0,0,1,.2.22l.2.21c.06.07.13.14.19.22l.2.21.19.22.2.21a2.09,2.09,0,0,0,.2.22c.06.07.13.14.19.22l.2.21.2.22.19.21.2.22.19.21.2.22.19.21.2.22a27.87,27.87,0,0,0,3.47,3.3c5.81,4.63,13.44,7.08,22.07,7.08a45.13,45.13,0,0,0,5.65-.36c42.07-5.16,50-53.25,55.29-85.08l.44-2.65c3.15-18.83,5.14-27.32,6.33-32.39.93-4,1.49-6.38,1.49-9.61A14.31,14.31,0,0,0,765.63,84.72ZM596,88a24.82,24.82,0,0,0,2.57-.17,22.65,22.65,0,0,0,4.65-1.09c-.53,2.78-1.13,5.6-1.76,8.43C599.61,92.6,597.75,90.23,596,88Z"/>
    </g>
    <g>
      <path class="cls-4" d="M462.65,97.76l-.19-.22-.2-.21-.2-.22c-.06-.07-.12-.15-.19-.22l-.2-.21-.19-.22-.2-.21-.2-.22-.19-.21-.2-.22-.19-.22-.2-.21-.2-.22-.19-.21-.2-.22-.19-.21-.2-.22c-.07-.07-.13-.15-.2-.21a2,2,0,0,0-.19-.22l-.2-.22-.19-.21-.2-.22-.2-.21-.19-.22c-.07-.07-.13-.15-.2-.21l-.2-.22c-.06-.07-.12-.15-.19-.22l-.2-.21L457,91.5l-.2-.21-.2-.22-.19-.21-.2-.22-.19-.22-.2-.21-.2-.22-.19-.21-.2-.22-.19-.21-.2-.22-.2-.22-.19-.21-.2-.22-.19-.21-.2-.22-.2-.21a2,2,0,0,0-.19-.22l-.2-.22-.19-.21-.2-.22a12,12,0,0,0-8.94-3.75,16.12,16.12,0,0,0-1.93.12c-4.5.56-8.69,2.48-12.06,4-1,.48-2.46,1.14-3.38,1.49l-.52-.14a40.51,40.51,0,0,0-11.47-1.66,47.9,47.9,0,0,0-5.86.37c-16.83,2.07-29,9.62-37,19.64l-.19-.2c-.06-.08-.13-.15-.19-.22l-.2-.21a2.09,2.09,0,0,0-.2-.22l-.19-.21-.2-.22c-.06-.07-.13-.14-.19-.22l-.2-.21a2.09,2.09,0,0,0-.2-.22l-.19-.21-.2-.22-.19-.21-.2-.22-.2-.22-.19-.21-.2-.22-.2-.21c-.06-.08-.13-.15-.19-.22L368,103c-.06-.08-.13-.15-.19-.22l-.2-.22-.2-.21c-.06-.07-.13-.14-.19-.22l-.2-.21c-.06-.08-.13-.15-.19-.22-3.76-4.31-9.54-6.78-16.74-6.78a39.18,39.18,0,0,0-4.83.31c-6.74.83-13.12,3.86-18.52,7.46A15.57,15.57,0,0,0,316.18,99a23.29,23.29,0,0,0-2.84.18,75.66,75.66,0,0,0-11.66,2.37,24.33,24.33,0,0,0,.38-4.25,19.16,19.16,0,0,0-5.43-13.78l-.2-.22-.2-.21c-.06-.07-.12-.15-.19-.22s-.13-.15-.2-.21-.13-.15-.19-.22l-.2-.22-.2-.21c-.06-.07-.12-.15-.19-.22l-.2-.21-.2-.22a1.9,1.9,0,0,0-.19-.21l-.2-.22c-.06-.07-.12-.15-.19-.22l-.2-.21-.2-.22-.19-.21-.2-.22c-.07-.07-.12-.15-.19-.21l-.2-.22-.2-.22-.19-.21-.2-.22-.19-.21-.2-.22c-.07-.07-.13-.15-.2-.21s-.12-.15-.19-.22-.13-.15-.2-.21-.13-.15-.19-.22l-.2-.22-.2-.21c-.06-.07-.12-.15-.19-.22l-.2-.21c-.07-.07-.13-.15-.19-.22l-.2-.22c-.07-.06-.13-.14-.2-.21s-.12-.15-.19-.22l-.2-.21c-.07-.07-.13-.15-.19-.22l-.2-.21-.2-.22a1.9,1.9,0,0,0-.19-.21l-.2-.22-.2-.22L288,74l-.2-.22-.19-.21-.2-.22c-.07-.07-.13-.15-.2-.21s-.12-.15-.19-.22l-.2-.22a19.05,19.05,0,0,0-13.94-5.63,25,25,0,0,0-3.08.19c-12.22,1.5-23.36,14.78-23.36,27.87A19.18,19.18,0,0,0,251.26,108l.2.22.19.21.2.22.2.22.19.21.15.17a26,26,0,0,0-8.53,5.83c-4-3.42-9.93-5.71-18.24-5.71a57.42,57.42,0,0,0-6.84.44,55.64,55.64,0,0,0-14.62,3.78,25,25,0,0,0,.38-4.31,19.18,19.18,0,0,0-5.43-13.78l-.19-.21-.2-.22-.2-.22-.19-.21-.2-.22-.19-.21-.2-.22c-.07-.07-.13-.15-.2-.21s-.12-.15-.19-.22l-.2-.22-.19-.21-.2-.22-.2-.21c-.06-.07-.12-.15-.19-.22s-.13-.15-.2-.21S196,92.07,196,92l-.2-.22c-.07-.06-.13-.14-.2-.21s-.12-.15-.19-.22l-.2-.21-.2-.22-.19-.21-.2-.22c-.07-.07-.13-.15-.19-.22s-.13-.14-.2-.21l-.2-.22-.19-.21-.2-.22-.19-.21-.2-.22c-.07-.07-.13-.15-.2-.21s-.12-.15-.19-.22l-.2-.22-.19-.21-.2-.22-.2-.21c-.06-.07-.12-.15-.19-.22s-.13-.15-.2-.21l-.2-.22c-.06-.07-.12-.15-.19-.22l-.2-.21c-.06-.07-.12-.15-.19-.22l-.2-.21-.2-.22a1.9,1.9,0,0,0-.19-.21l-.2-.22c-.07-.07-.12-.15-.19-.22l-.2-.21-.2-.22-.19-.21A19.08,19.08,0,0,0,175.37,79a25,25,0,0,0-3.08.19,23,23,0,0,0-10,3.92,30.64,30.64,0,0,0-2.85-3.85l-.2-.21a2.09,2.09,0,0,0-.2-.22c-.06-.07-.13-.14-.19-.22l-.2-.21c-.06-.07-.13-.14-.19-.22l-.2-.21a2.09,2.09,0,0,0-.2-.22l-.19-.21-.2-.22-.2-.22-.19-.21-.2-.22-.19-.21-.2-.22-.2-.21c-.06-.08-.13-.15-.19-.22l-.2-.22-.19-.21a2.09,2.09,0,0,1-.2-.22l-.2-.21c-.06-.08-.13-.14-.19-.22l-.2-.21c-.06-.08-.13-.15-.19-.22a2.09,2.09,0,0,1-.2-.22l-.2-.21c-.06-.07-.13-.14-.19-.22l-.2-.21c-.06-.08-.13-.14-.19-.22l-.2-.21a2.09,2.09,0,0,0-.2-.22l-.19-.21-.2-.22-.2-.22-.19-.21c-.06-.08-.13-.14-.2-.22l-.19-.21-.2-.22L152,71.1l-.2-.22-.2-.22-.19-.21a2.09,2.09,0,0,1-.2-.22L151,70c-.06-.08-.13-.15-.19-.22l-.2-.21c-.06-.08-.13-.15-.19-.22a2.09,2.09,0,0,1-.2-.22l-.2-.21c-.06-.08-.13-.14-.19-.22l-.2-.21C142.31,60,129.87,55.3,113.45,55.3a109.71,109.71,0,0,0-13.26.86C73.86,59.39,49.34,68,31.15,80.47,11.06,94.2,0,111.76,0,129.91c0,8.77,2.8,16.1,7.69,21.23l.2.22.19.21.2.22.19.21.2.22.2.21.19.22.2.21c.06.08.13.15.19.22l.2.22.2.21.19.22.2.21c.07.07.13.15.19.22l.2.21.2.22.19.22.2.21.2.22.19.21.2.22.19.21.2.22.2.22.19.21.2.22L13,157l.2.22.2.21c.06.08.13.15.19.22l.2.22L14,158l.2.22.2.21.19.22.2.21.2.22.19.21.2.22.19.22.2.21.2.22.19.21.2.22.19.21.2.22.2.22.19.21.2.22.19.21c4.89,5.26,11.91,8.28,20.34,8.28a36.86,36.86,0,0,0,3.89-.23c-4.16,16.09-6.26,26.11-6.26,30.84a14.76,14.76,0,0,0,2.92,9.36,13.07,13.07,0,0,0,1,1.11c.07.07.13.15.2.21a2,2,0,0,0,.19.22l.2.22.2.21c.06.07.12.15.19.22s.13.15.2.21l.19.22c.07.07.13.15.2.21l.2.22c.06.07.12.15.19.22l.2.21.19.22.2.21.2.22a1.9,1.9,0,0,0,.19.21l.2.22.19.22.2.21.2.22.19.21.2.22.19.21.2.22.2.22.19.21.2.22.19.21.2.22c.07.07.13.15.2.21s.12.15.19.22l.2.22.2.21c.06.07.12.15.19.22l.2.21.19.22c.07.07.13.15.2.21l.2.22c.06.07.12.15.19.22l.2.21.19.22.2.21.2.22a1.9,1.9,0,0,0,.19.21l.2.22.19.21.2.22.2.22.19.21.2.22.19.21a12.59,12.59,0,0,0,9.31,3.87,16,16,0,0,0,1.94-.12c1.61-.2,4.08-.67,8.31-1.5s9.71-1.89,12.77-2.27c8.21-1,12.92-6.32,12.92-14.57a64.48,64.48,0,0,1,1.31-10.86c.23.28.47.56.71.82a2.09,2.09,0,0,0,.2.22l.19.21.2.22c.06.07.13.14.19.22l.2.21.2.22.19.21.2.22.19.21.2.22.2.22.19.21.2.22.19.21.2.22.2.21c.06.08.13.15.19.22l.2.22.19.21.2.22.2.21.19.22.2.21a2.09,2.09,0,0,0,.2.22c.06.07.13.14.19.22l.2.21.19.22.2.21.2.22.19.21.2.22.19.21.2.22.2.22.19.21.2.22.19.21.2.22.2.22.19.21.2.22.2.21c.06.07.12.15.19.22l.2.21c.06.08.13.15.19.22l.2.22.2.21.19.22.2.21.19.22c5,5.5,11.84,8.44,20,8.44h0a38.48,38.48,0,0,0,4.72-.3,45.84,45.84,0,0,0,24.62-11.12C160,208.85,166,210.9,173,210.9a41.24,41.24,0,0,0,5-.32,42.69,42.69,0,0,0,20.17-8.21A37.65,37.65,0,0,0,215.12,206a55.58,55.58,0,0,0,6.84-.43c12.64-1.55,22.72-6.69,29-14.26,4.53,4.82,11.31,7.6,19.55,7.6a41.15,41.15,0,0,0,5-.31,41.64,41.64,0,0,0,15.64-5.26,13.26,13.26,0,0,0,7.6,2.28,18.08,18.08,0,0,0,2.17-.14c1.63-.2,3.76-.64,6.45-1.19,3.14-.65,7-1.45,10.1-1.83,8.21-1,13.12-6.46,13.12-14.59a20.71,20.71,0,0,1,.16-2.28l.1.11.2.21.2.22.19.21.2.22.19.22.2.21.2.22.19.21.2.22.19.21.2.22.2.22.19.21.2.22.19.21.2.22.2.21c.06.08.13.15.19.22l.2.22.19.21.2.22.2.21.19.22.2.21c4.46,4.83,11.17,7.75,19.07,7.75l1,0a37.64,37.64,0,0,0-1.46,10.51,27.79,27.79,0,0,0,7,18.89l.19.21.2.22.2.21c.06.08.13.15.19.22l.2.22.19.21.2.22.2.21c.06.08.13.15.19.22l.2.22.2.21c.06.07.13.14.19.22l.2.21.19.22.2.21c.06.08.13.15.19.22l.2.21.2.22c.06.07.13.14.19.22l.2.21.2.22.19.21.2.22.19.21.2.22.2.22.19.21.2.22.19.21.2.22.2.21c.06.08.13.15.19.22l.2.22.19.21a2.09,2.09,0,0,1,.2.22l.2.21c.06.08.13.15.19.22l.2.21c.06.08.13.15.19.22a2.09,2.09,0,0,1,.2.22l.2.21c.06.07.13.14.19.22l.2.21.2.22.19.21.2.22c.06.07.13.14.19.22l.2.21.2.22.19.21a27.15,27.15,0,0,0,3.47,3.3c5.81,4.63,13.44,7.08,22.07,7.08a47.08,47.08,0,0,0,5.65-.35c18.94-2.33,33.15-14,42.23-34.82,7.1-16.22,10.07-35.59,12.46-51.15l.27-1.8c3.53-22.9,6.26-32.26,7.57-36.75a25.37,25.37,0,0,0,1.42-7.43A12.8,12.8,0,0,0,462.65,97.76ZM139.21,160.68a92.79,92.79,0,0,0-4.89-11.6,77.84,77.84,0,0,0,9.44-6.05,72,72,0,0,1-2.14,8.77c-.76,2.7-1.59,5.66-2.32,8.78Z"/>
      <path class="cls-4" d="M745.63,64.72l-.2-.21c-.06-.08-.13-.14-.2-.22l-.19-.21a2.09,2.09,0,0,0-.2-.22l-.19-.21-.2-.22-.2-.22-.19-.21c-.06-.08-.13-.14-.2-.22l-.19-.21-.2-.22-.2-.21c-.06-.08-.13-.15-.19-.22l-.2-.22-.19-.21c-.07-.08-.14-.14-.2-.22l-.2-.21c-.06-.08-.13-.14-.19-.22l-.2-.21a2.09,2.09,0,0,0-.2-.22l-.19-.21a2.09,2.09,0,0,0-.2-.22c-.06-.08-.13-.14-.19-.22l-.2-.21c-.06-.08-.13-.14-.2-.22l-.19-.21a2.09,2.09,0,0,0-.2-.22c-.06-.07-.13-.14-.19-.22l-.2-.21c-.06-.08-.13-.14-.2-.22l-.19-.21c-.06-.08-.13-.14-.2-.22l-.19-.21-.2-.22-.2-.21c-.06-.08-.13-.15-.19-.22l-.2-.22-.19-.21c-.07-.08-.14-.14-.2-.22l-.2-.21c-.06-.08-.13-.15-.19-.22l-.2-.21c-.06-.08-.13-.15-.19-.22a2.09,2.09,0,0,1-.2-.22l-.2-.21c-.06-.08-.13-.14-.19-.22l-.2-.21a2.09,2.09,0,0,0-.2-.22l-.19-.21a2.09,2.09,0,0,0-.2-.22,14.94,14.94,0,0,0-11.76-5.06,23.08,23.08,0,0,0-2.93.19c-5.61.69-21.1,3.3-27.66,11.51l0,0-.2-.21-.2-.22-.19-.21-.2-.22-.19-.21-.2-.22-.2-.22-.19-.21a15.1,15.1,0,0,0-11.36-4.6,25,25,0,0,0-2.93.18c-4.82.6-16.94,2.61-24.42,8.39a14.39,14.39,0,0,0-10.34-4l-1,0a74.46,74.46,0,0,0,1.86-13.79c0-7-2.37-12.93-6.5-17l-.2-.21c-.07-.07-.13-.15-.19-.22s-.13-.15-.2-.21l-.2-.22c-.06-.07-.12-.15-.19-.22s-.13-.14-.2-.21-.13-.15-.19-.22l-.2-.21-.2-.22a1.9,1.9,0,0,0-.19-.21l-.2-.22c-.07-.07-.13-.15-.19-.22s-.13-.14-.2-.21l-.2-.22-.19-.21-.2-.22c-.07-.07-.13-.15-.2-.21s-.12-.15-.19-.22l-.2-.22c-.07-.06-.12-.14-.19-.21l-.2-.22-.2-.21c-.06-.07-.12-.15-.19-.22s-.13-.15-.2-.21-.13-.15-.19-.22l-.2-.22c-.07-.06-.13-.14-.2-.21s-.12-.15-.19-.22l-.2-.21c-.07-.07-.13-.15-.19-.22l-.2-.21-.2-.22a1.9,1.9,0,0,0-.19-.21l-.2-.22c-.07-.07-.13-.15-.19-.22l-.2-.21-.2-.22-.19-.21-.2-.22c-.07-.07-.13-.15-.2-.21s-.12-.15-.19-.22l-.2-.22-.19-.21-.2-.22-.2-.21c-.06-.07-.12-.15-.19-.22s-.13-.15-.2-.21-.12-.15-.19-.22l-.2-.22-.2-.21c-4.13-4.24-10.08-6.69-17.22-6.69a35.89,35.89,0,0,0-4.44.28,47.13,47.13,0,0,0-15.43,5l-.16-.17-.19-.21-.2-.22c-.06-.07-.13-.14-.19-.22l-.2-.21c-.06-.08-.13-.14-.2-.22l-.19-.21-.2-.22-.2-.21c-.06-.08-.13-.15-.19-.22l-.2-.22-.19-.21c-.07-.08-.14-.14-.2-.22l-.2-.21c-.06-.08-.13-.14-.19-.22l-.2-.21c-.06-.08-.13-.15-.19-.22a2.09,2.09,0,0,1-.2-.22l-.2-.21c-.06-.08-.13-.14-.19-.22l-.2-.21c-.06-.08-.13-.14-.19-.22l-.2-.21a2.09,2.09,0,0,0-.2-.22c-.06-.07-.13-.14-.19-.22l-.2-.21c-.06-.08-.13-.14-.19-.22l-.2-.21c-.06-.08-.13-.14-.2-.22C579.41,3.46,571.22,0,560.81,0a54.85,54.85,0,0,0-6.74.43c-22.41,2.75-46.61,21.68-46.61,47.47,0,13.79,7,23.24,13.24,31.58q.6.83,1.2,1.62c-.44,0-.89,0-1.36,0a42.36,42.36,0,0,0-5.08.34c-17.47,2.15-42.08,16.23-42.08,40.81a33.86,33.86,0,0,0,8.91,23.49l.2.22.2.21c.06.07.12.15.19.22l.2.21c.06.08.13.15.19.22l.2.22.2.21.19.22.2.21.19.22.2.21.2.22c.06.07.13.14.19.22l.2.21.19.22.2.21.2.22.19.21.2.22c.06.07.13.14.19.22l.2.21.2.22.19.21.2.22.19.21.2.22.2.21c.06.08.13.15.19.22l.2.22.2.21.19.22.2.21.19.22.2.21.2.22c.06.07.13.14.19.22l.2.21.19.22.2.21.2.22.19.21.2.22c.06.07.13.14.19.22l.2.21.2.22.19.21.2.22.2.21a2,2,0,0,0,.19.22l.2.22a33.42,33.42,0,0,0,4.51,4.11c7.43,5.64,17.33,8.62,28.64,8.62a66.7,66.7,0,0,0,8.16-.51A69.05,69.05,0,0,0,575,148.16l.09.09h0l.19.21h0c.06.08.14.14.2.22h0l.19.21h0c.07.08.14.14.2.22h0l.2.21h0c.06.08.13.14.19.22h0c.06.08.14.14.2.21h0c.12.15.26.28.39.43h0l.2.21h0c.06.08.13.14.19.22h0l.2.21h0a5.39,5.39,0,0,0,.39.43h0a2.09,2.09,0,0,0,.2.22h0c.06.08.13.14.19.22h0l.2.21h0c.06.08.13.14.2.22h0l.19.21h0c.06.08.13.14.2.22h0c.06.08.13.14.19.21h0l.2.22h0c.06.08.13.14.2.22h0c.12.15.26.28.39.43h0l.19.21h0c.07.08.14.14.2.22h0l.2.21h0c.06.08.13.15.19.22h0c.06.08.14.14.2.22h0l.19.21h0c.07.08.14.14.2.22h0a12.5,12.5,0,0,0,9.93,4.56,16,16,0,0,0,2-.13c1.72-.21,4-.66,6.79-1.24,3.34-.68,7.12-1.45,10.15-1.82,5.57-.69,9.53-3.35,11.5-7.57a21.76,21.76,0,0,0,14.51,5.17,26.48,26.48,0,0,0,2.65-.15,37.39,37.39,0,0,0-1.42,10.34,27.79,27.79,0,0,0,7,18.9l.19.21.2.22.2.21c.06.08.13.15.19.22l.2.21c.06.08.13.15.19.22l.2.22.2.21c.06.07.13.14.19.22l.2.21c.06.08.13.15.19.22l.2.21a2.09,2.09,0,0,0,.2.22l.19.21.2.22c.06.07.13.14.19.22l.2.21.2.22.19.21.2.22.2.22.19.21.2.22.19.21.2.22.2.21c.06.08.13.15.19.22l.2.22.19.21.2.22.2.21c.06.08.13.15.19.22l.2.21c.06.08.13.15.19.22a2.09,2.09,0,0,1,.2.22l.2.21c.06.07.13.14.19.22l.2.21.19.22.2.21a2.09,2.09,0,0,0,.2.22c.06.07.13.14.19.22l.2.21.2.22.19.21.2.22.19.21.2.22.19.21.2.22a27.87,27.87,0,0,0,3.47,3.3c5.81,4.63,13.44,7.08,22.07,7.08a45.13,45.13,0,0,0,5.65-.36c42.07-5.16,50-53.25,55.29-85.08l.44-2.65c3.15-18.83,5.14-27.32,6.33-32.39.93-4,1.49-6.38,1.49-9.61A14.31,14.31,0,0,0,745.63,64.72ZM576,68a24.82,24.82,0,0,0,2.57-.17,22.65,22.65,0,0,0,4.65-1.09c-.53,2.78-1.13,5.6-1.76,8.43C579.61,72.6,577.75,70.23,576,68Z"/>
    </g>
    <g>
      <path class="cls-1" d="M172,118.38c7.49-.92,14.58-10.27,14.58-18.15,0-5.91-3.94-10-11-9.08-7.49.92-14.58,10.06-14.58,17.94C160.93,115,165.86,119.13,172,118.38Z"/>
      <path class="cls-1" d="M233.62,143.9c6.5-.8,9.26-5.86,9.26-11.18,0-8.08-6.5-12.8-20.88-11-14.78,1.81-27.19,9.64-27.19,22.05,0,14.78,19.51,14.16,19.51,25.78,0,3.55-1.58,5.51-4.34,5.85-3.54.44-5.32-2.7-5.32-7.62,0-4.73-3.15-6.9-8.47-6.25-4.49.55-9,4.78-9.05,11a8.08,8.08,0,0,1-3.75,1.41c-3.55.43-6.5-2.16-6.5-7.28,0-13,6.3-26.19,6.3-34.07,0-3.35-2.36-4.83-6.7-4.3-11.42,1.4-21.86,5.64-21.86,10,0,2.56,1.18,2.81,1.18,6.16,0,5.19-3.49,13.89-5.35,23.13a15,15,0,0,0-1.54,1.55c-3.35,3.76-6.7,5.75-10.44,6.21-16.55,2-15-34.41-29.36-38.76,18.33-5.6,40-21.85,40-44.31,0-20.68-19.11-27.4-45.71-24.13C53,74.28,12,101,12,131.91c0,13.79,8.87,20.58,21.08,19.08,15.56-1.91,26.6-17.84,26.6-23.36,0-1.38-.6-2.09-2-1.92-1,.12-4.14,1.88-6.7,2.2-5.12.63-8.08-2-8.08-8.27,0-13.2,18.72-34.61,44.52-39.35-5.32,4.4-10.44,8.77-14.38,23-5.91,21.81-25.61,88.25-25.61,99.48,0,3.35,1.38,4.36,3.74,4.07,3.16-.38,15.17-3,21.08-3.77,3-.36,4.14-1.29,4.14-4.64,0-13.2,8.67-41.45,12-55.46,18.12-2.22-2.37,58.8,33.29,54.43,12.5-1.54,21.39-9.15,27.65-18.15.73,8.22,7.21,13.87,19.43,12.37,9.19-1.13,16.21-6.21,20.92-11.13,4.06,5.19,12.54,7.41,23,6.13,17.34-2.13,27.58-12.06,27.58-24.87,0-14.38-21.67-13.29-21.67-24.91,0-3.75,3.15-6.89,5.71-7.21,2.17-.26,3.75.33,3.75,2.3,0,1.77-1.58,3.15-1.58,6.1C226.53,141.82,229.88,144.36,233.62,143.9ZM90.8,132.68c-.19,0,5.32-21.93,10-37.49,3.15-10.23,6.5-15.57,8.87-18,7.68-.94,12.41,4.19,12.41,14.24C122.13,107.55,110.5,127.89,90.8,132.68Z"/>
      <path class="cls-1" d="M269.48,106.4c7.48-.92,14.58-10.26,14.58-18.14,0-5.91-3.95-10-11-9.09-7.48.92-14.58,10.07-14.58,18C258.44,103,263.37,107.15,269.48,106.4Z"/>
      <path class="cls-1" d="M445.2,95.27c-5.52.68-11.82,5.19-16,5.7-3.15.39-6.89-2.9-17.33-1.61-28.18,3.46-40,25-40,44.31,0,1,0,1.9.14,2.81l-.13.14c-2.56,2.88-4.14,4.65-7.49,5.06-3.55.43-6.3-1.2-6.3-6.32,0-8.08,5.51-18.6,5.51-27.67,0-7.48-4.33-11.88-15.17-10.54-11.62,1.42-23.24,12.5-26.79,17.27,0,0,1.58-5.9,1.58-9.06,0-3.35-2.37-4.83-6.7-4.3-11.43,1.41-22.07,5.67-22.07,10,0,2.56,1.38,2.79,1.38,6.14,0,6-2.63,17.39-4.92,27.5a7.53,7.53,0,0,0-2.56,2.18c-2.56,2.87-4.14,4.64-7.49,5.05-3.54.44-6.5-2.15-6.5-7.27,0-13,6.31-26.19,6.31-34.07,0-3.35-2.37-4.83-6.7-4.3-11.43,1.4-21.87,5.64-21.87,10,0,2.56,1.18,2.81,1.18,6.16,0,7.09-6.5,20.7-6.5,33.31,0,9.06,6.5,15.55,19.5,14,9.86-1.21,17.22-7,21.91-12.19a33.79,33.79,0,0,0-.63,5.25c0,3.34,1.57,4.14,4.13,3.82,3-.36,10.64-2.29,16.55-3,3-.37,4.34-1.32,4.34-4.67,0-7.69,5.12-25.06,8.47-32.17,4.33-9.2,9.06-13.13,12.41-13.54,2.76-.34,4.53,1.81,4.53,5,0,7.68-6.3,16.33-6.3,28.35,0,8.47,6.89,14.33,18.12,13,11.73-1.44,19.94-9.31,24.3-15.09,3.43,7.1,10.6,10.8,20,9.64,12.6-1.54,20.68-10,21.67-11.52-.2,4.36-3.94,39.1-20.89,41.18-6.69.82-11.23-2.17-11.23-7.89,0-4.33,1.78-5.53,1.78-7.5,0-1.18-.79-1.68-2.17-1.51-4.53.56-17.14,8.61-17.14,24.37,0,13.79,12.41,20.54,26.79,18.77,35.47-4.35,41.57-48.64,46.3-79.36,5.32-34.54,8.87-39.11,8.87-42.66C448.16,95.69,447.17,95,445.2,95.27Zm-30.54,43.35c-2.36,6.39-5.91,10-10.24,10.51s-6.9-3.29-6.9-8.41c0-10.05,5.32-32.17,15.37-33.41,4.34-.53,6.7,1.35,6.7,4.89C419.59,117.92,417,132,414.66,138.62Z"/>
      <path class="cls-1" d="M569.31,48.9c8.08-1,13.59-9.55,13.59-18.21,0-14-9.45-20.32-25.61-18.33-16.35,2-37.83,16.07-37.83,37.54,0,22.46,25,30.42,25,59.77,0,14.19-6.9,25.48-16.36,26.64C519.27,137.4,513,131.87,513,122c0-9.26,5.32-17.6,11-22,2-1.42,3.34-2.38,3.34-4.54,0-1.78-2-2.91-8.66-2.09-13.79,1.69-33.3,12.76-33.3,30.88,0,19.31,17.93,28.14,38.81,25.57C552.56,146.31,574,124,574,97.77c0-28.76-26.8-36.5-26.8-59.55,0-8.67,6.11-15.33,13-16.18,4.92-.6,6.1,1.61,6.1,4.57,0,5.12-6.7,8.11-6.7,14.81C559.65,46.74,564,49.56,569.31,48.9Z"/>
      <path class="cls-1" d="M724.34,61c-11.22,1.38-21.86,5.64-21.86,10,0,2.56,1.38,2.78,1.38,6.13,0,7.1-1.78,19.13-5.72,25.53-2.95,4.69-7.88,9.24-12.41,9.8-3.15.38-5.12-2.13-5.12-5.48,0-12.22,6.89-27.64,6.89-36.31,0-3.35-2.16-4.86-6.7-4.3-11.22,1.38-21.86,5.64-21.86,10,0,2.57,1.38,2.79,1.38,6.14,0,5.86-4.43,16.56-6,27.54-1,.21-1.82.9-3.09,2.33-2.56,2.88-4.53,4.7-8.08,5.13-8.27,1-15-6.24-17.14-12.87,14.58-9.86,23.05-21.54,23.05-29.81,0-3-1.77-4.32-5.71-3.83-9.07,1.11-21.28,8.91-21.28,13,0,2,1.38,2.19,1.38,4.36,0,4.73-5.91,12.15-11.82,12.88,0-7.88,14-52.74,14-65.15,0-9.86-6.31-14.6-16.75-13.31-11.23,1.37-21.67,9.16-21.67,13.29,0,1.58,1.18,2.22,2.95,2,4.14-.51,7.49,2.23,7.49,8.73,0,29.35-17.34,72.85-17.34,90,0,3.35,1.38,4.17,3.75,3.88,3.15-.39,11-2.34,16.94-3.07,3-.36,4.14-1.29,4.14-4.64,0-3.75,4.73-21.66,4.73-21.66,2-.25,3.15,25.81,20.29,23.71,11.07-1.36,19.46-9.67,23.84-15.7,1.19,7.29,7.82,11.81,16.74,10.71a48.39,48.39,0,0,0,29.94-15.49c-3,19.67-8.07,42.56-22.46,44.32-6.69.83-11.23-2.16-11.23-7.88,0-4.33,1.78-5.53,1.78-7.5,0-1.19-.79-1.68-2.17-1.51-4.53.55-17.14,8.6-17.14,24.36,0,13.8,12.41,20.55,26.79,18.78,35.66-4.38,42-48.69,47.09-79.46,5.52-33,7.68-35.42,7.68-40.35C731,61.94,728.88,60.44,724.34,61Z"/>
    </g>
    <g>
      <path class="cls-5" d="M170,116.38c7.49-.92,14.58-10.27,14.58-18.15,0-5.91-3.94-10-11-9.08-7.49.92-14.58,10.06-14.58,17.94C158.93,113,163.86,117.13,170,116.38Z"/>
      <path class="cls-5" d="M231.62,141.9c6.5-.8,9.26-5.86,9.26-11.18,0-8.08-6.5-12.8-20.88-11-14.78,1.81-27.19,9.64-27.19,22.05,0,14.78,19.51,14.16,19.51,25.78,0,3.55-1.58,5.51-4.34,5.85-3.54.44-5.32-2.7-5.32-7.62,0-4.73-3.15-6.9-8.47-6.25-4.49.55-9,4.78-9.05,11a8.08,8.08,0,0,1-3.75,1.41c-3.55.43-6.5-2.16-6.5-7.28,0-13,6.3-26.19,6.3-34.07,0-3.35-2.36-4.83-6.7-4.3-11.42,1.4-21.86,5.64-21.86,10,0,2.56,1.18,2.81,1.18,6.16,0,5.19-3.49,13.89-5.35,23.13a15,15,0,0,0-1.54,1.55c-3.35,3.76-6.7,5.75-10.44,6.21-16.55,2-15-34.41-29.36-38.76,18.33-5.6,40-21.85,40-44.31,0-20.68-19.11-27.4-45.71-24.13C51,72.28,10,99,10,129.91c0,13.79,8.87,20.58,21.08,19.08,15.56-1.91,26.6-17.84,26.6-23.36,0-1.38-.6-2.09-2-1.92-1,.12-4.14,1.88-6.7,2.2-5.12.63-8.08-2-8.08-8.27,0-13.2,18.72-34.61,44.52-39.35-5.32,4.4-10.44,8.77-14.38,23-5.91,21.81-25.61,88.25-25.61,99.48,0,3.35,1.38,4.36,3.74,4.07,3.16-.38,15.17-3,21.08-3.77,3-.36,4.14-1.29,4.14-4.64,0-13.2,8.67-41.45,12-55.46,18.12-2.22-2.37,58.8,33.29,54.43,12.5-1.54,21.39-9.15,27.65-18.15.73,8.22,7.21,13.87,19.43,12.37,9.19-1.13,16.21-6.21,20.92-11.13,4.06,5.19,12.54,7.41,23,6.13,17.34-2.13,27.58-12.06,27.58-24.87,0-14.38-21.67-13.29-21.67-24.91,0-3.75,3.15-6.89,5.71-7.21,2.17-.26,3.75.33,3.75,2.3,0,1.77-1.58,3.15-1.58,6.1C224.53,139.82,227.88,142.36,231.62,141.9ZM88.8,130.68c-.19,0,5.32-21.93,10-37.49,3.15-10.23,6.5-15.57,8.87-18,7.68-.94,12.41,4.19,12.41,14.24C120.13,105.55,108.5,125.89,88.8,130.68Z"/>
      <path class="cls-5" d="M267.48,104.4c7.48-.92,14.58-10.26,14.58-18.14,0-5.91-3.95-10-11-9.09-7.48.92-14.58,10.07-14.58,18C256.44,101,261.37,105.15,267.48,104.4Z"/>
      <path class="cls-5" d="M443.2,93.27c-5.52.68-11.82,5.19-16,5.7-3.15.39-6.89-2.9-17.33-1.61-28.18,3.46-40,25-40,44.31,0,1,0,1.9.14,2.81l-.13.14c-2.56,2.88-4.14,4.65-7.49,5.06-3.55.43-6.3-1.2-6.3-6.32,0-8.08,5.51-18.6,5.51-27.67,0-7.48-4.33-11.88-15.17-10.54-11.62,1.42-23.24,12.5-26.79,17.27,0,0,1.58-5.9,1.58-9.06,0-3.35-2.37-4.83-6.7-4.3-11.43,1.41-22.07,5.67-22.07,10,0,2.56,1.38,2.79,1.38,6.14,0,6-2.63,17.39-4.92,27.5a7.53,7.53,0,0,0-2.56,2.18c-2.56,2.87-4.14,4.64-7.49,5.05-3.54.44-6.5-2.15-6.5-7.27,0-13,6.31-26.19,6.31-34.07,0-3.35-2.37-4.83-6.7-4.3-11.43,1.4-21.87,5.64-21.87,10,0,2.56,1.18,2.81,1.18,6.16,0,7.09-6.5,20.7-6.5,33.31,0,9.06,6.5,15.55,19.5,14,9.86-1.21,17.22-7,21.91-12.19a33.79,33.79,0,0,0-.63,5.25c0,3.34,1.57,4.14,4.13,3.82,3-.36,10.64-2.29,16.55-3,3-.37,4.34-1.32,4.34-4.67,0-7.69,5.12-25.06,8.47-32.17,4.33-9.2,9.06-13.13,12.41-13.54,2.76-.34,4.53,1.81,4.53,5,0,7.68-6.3,16.33-6.3,28.35,0,8.47,6.89,14.33,18.12,13,11.73-1.44,19.94-9.31,24.3-15.09,3.43,7.1,10.6,10.8,20,9.64,12.6-1.54,20.68-10,21.67-11.52-.2,4.36-3.94,39.1-20.89,41.18-6.69.82-11.23-2.17-11.23-7.89,0-4.33,1.78-5.53,1.78-7.5,0-1.18-.79-1.68-2.17-1.51-4.53.56-17.14,8.61-17.14,24.37,0,13.79,12.41,20.54,26.79,18.77,35.47-4.35,41.57-48.64,46.3-79.36,5.32-34.54,8.87-39.11,8.87-42.66C446.16,93.69,445.17,93,443.2,93.27Zm-30.54,43.35c-2.36,6.39-5.91,10-10.24,10.51s-6.9-3.29-6.9-8.41c0-10.05,5.32-32.17,15.37-33.41,4.34-.53,6.7,1.35,6.7,4.89C417.59,115.92,415,130,412.66,136.62Z"/>
      <path class="cls-5" d="M567.31,46.9c8.08-1,13.59-9.55,13.59-18.21,0-14-9.45-20.32-25.61-18.33-16.35,2-37.83,16.07-37.83,37.54,0,22.46,25,30.42,25,59.77,0,14.19-6.9,25.48-16.36,26.64C517.27,135.4,511,129.87,511,120c0-9.26,5.32-17.6,11-22,2-1.42,3.34-2.38,3.34-4.54,0-1.78-2-2.91-8.66-2.09-13.79,1.69-33.3,12.76-33.3,30.88,0,19.31,17.93,28.14,38.81,25.57C550.56,144.31,572,122,572,95.77c0-28.76-26.8-36.5-26.8-59.55,0-8.67,6.11-15.33,13-16.18,4.92-.6,6.1,1.61,6.1,4.57,0,5.12-6.7,8.11-6.7,14.81C557.65,44.74,562,47.56,567.31,46.9Z"/>
      <path class="cls-5" d="M722.34,59c-11.22,1.38-21.86,5.64-21.86,10,0,2.56,1.38,2.78,1.38,6.13,0,7.1-1.78,19.13-5.72,25.53-2.95,4.69-7.88,9.24-12.41,9.8-3.15.38-5.12-2.13-5.12-5.48,0-12.22,6.89-27.64,6.89-36.31,0-3.35-2.16-4.86-6.7-4.3-11.22,1.38-21.86,5.64-21.86,10,0,2.57,1.38,2.79,1.38,6.14,0,5.86-4.43,16.56-6,27.54-1,.21-1.82.9-3.09,2.33-2.56,2.88-4.53,4.7-8.08,5.13-8.27,1-15-6.24-17.14-12.87,14.58-9.86,23.05-21.54,23.05-29.81,0-3-1.77-4.32-5.71-3.83-9.07,1.11-21.28,8.91-21.28,13,0,2,1.38,2.19,1.38,4.36,0,4.73-5.91,12.15-11.82,12.88,0-7.88,14-52.74,14-65.15,0-9.86-6.31-14.6-16.75-13.31-11.23,1.37-21.67,9.16-21.67,13.29,0,1.58,1.18,2.22,2.95,2,4.14-.51,7.49,2.23,7.49,8.73,0,29.35-17.34,72.85-17.34,90,0,3.35,1.38,4.17,3.75,3.88,3.15-.39,11-2.34,16.94-3.07,3-.36,4.14-1.29,4.14-4.64,0-3.75,4.73-21.66,4.73-21.66,2-.25,3.15,25.81,20.29,23.71,11.07-1.36,19.46-9.67,23.84-15.7,1.19,7.29,7.82,11.81,16.74,10.71a48.39,48.39,0,0,0,29.94-15.49c-3,19.67-8.07,42.56-22.46,44.32-6.69.83-11.23-2.16-11.23-7.88,0-4.33,1.78-5.53,1.78-7.5,0-1.19-.79-1.68-2.17-1.51-4.53.55-17.14,8.6-17.14,24.36,0,13.8,12.41,20.55,26.79,18.78,35.66-4.38,42-48.69,47.09-79.46,5.52-33,7.68-35.42,7.68-40.35C729,59.94,726.88,58.44,722.34,59Z"/>
    </g>
  </g>
  <g>
    <path class="cls-6" d="M754.25,258.46l-.26-.53.16-.08a2.5,2.5,0,0,0,.39-.23.86.86,0,0,0,.26-.28.62.62,0,0,0,.09-.38,1.12,1.12,0,0,0-.15-.51l-3-6.12a1.46,1.46,0,0,0-.31-.44.74.74,0,0,0-.35-.16.92.92,0,0,0-.4,0,2.75,2.75,0,0,0-.41.17l-.16.08-.26-.53,3.66-1.79.26.53-.17.08a3.44,3.44,0,0,0-.38.22.8.8,0,0,0-.27.28.76.76,0,0,0-.1.37,1.19,1.19,0,0,0,.14.49l3.4,7,2.49-1.21a1.38,1.38,0,0,0,.43-.34,1.2,1.2,0,0,0,.2-.43,1.41,1.41,0,0,0,0-.46,2.11,2.11,0,0,0-.1-.45l-.34-1,.66-.32,1.23,2.74Z"/>
    <path class="cls-6" d="M757.94,245.39a1.18,1.18,0,0,1-.19-.37.87.87,0,0,1,0-.32.53.53,0,0,1,.13-.26,1.21,1.21,0,0,1,.23-.22,1,1,0,0,1,.28-.14.54.54,0,0,1,.28,0,.63.63,0,0,1,.3.12.91.91,0,0,1,.28.3,1.09,1.09,0,0,1,.19.37.87.87,0,0,1,0,.32.68.68,0,0,1-.12.26.93.93,0,0,1-.23.21,1,1,0,0,1-.28.15.58.58,0,0,1-.29,0,.63.63,0,0,1-.3-.12A1.37,1.37,0,0,1,757.94,245.39Zm4.47,8.08a3.3,3.3,0,0,0,.35-.28.89.89,0,0,0,.22-.31.68.68,0,0,0,0-.38,1.15,1.15,0,0,0-.21-.46l-2.54-3.64a1.08,1.08,0,0,0-.36-.35.62.62,0,0,0-.37-.09.92.92,0,0,0-.38.09,3.21,3.21,0,0,0-.38.23l0,0-.34-.48,2.06-1.43,3.38,4.85a1.34,1.34,0,0,0,.37.38.7.7,0,0,0,.38.1.92.92,0,0,0,.38-.09,2.14,2.14,0,0,0,.38-.23l.16-.1.33.48-3.26,2.28-.34-.49Z"/>
    <path class="cls-6" d="M769.65,247.82l.42.41-2.62,2.7-.42-.41.12-.13a2.19,2.19,0,0,0,.29-.34.75.75,0,0,0,.13-.34.62.62,0,0,0-.06-.37,1.56,1.56,0,0,0-.32-.42l-3.14-3a1.24,1.24,0,0,0-.41-.29.8.8,0,0,0-.37,0,1.21,1.21,0,0,0-.33.15,2.86,2.86,0,0,0-.33.29l0,0-.43-.41,1.53-1.57.95.65,0-.05a4.06,4.06,0,0,1-.15-.76,2.1,2.1,0,0,1,.07-.63,2.14,2.14,0,0,1,.25-.53,4.11,4.11,0,0,1,.39-.48,3.1,3.1,0,0,1,.5-.41,1.93,1.93,0,0,1,1.17-.33,2.15,2.15,0,0,1,.66.17l.08-.08a2.93,2.93,0,0,1-.14-.77,1.93,1.93,0,0,1,.09-.65,2.14,2.14,0,0,1,.26-.55,4.63,4.63,0,0,1,.41-.49,2.68,2.68,0,0,1,.78-.57,1.81,1.81,0,0,1,.85-.18,2.44,2.44,0,0,1,.93.27,4.45,4.45,0,0,1,1,.75l2.38,2.31a1.52,1.52,0,0,0,.43.31.74.74,0,0,0,.38.05.79.79,0,0,0,.34-.15,2.8,2.8,0,0,0,.32-.29l0,0,.42.41-1.69,1.75L771,240.38a4,4,0,0,0-.64-.51,1.61,1.61,0,0,0-.61-.24,1.06,1.06,0,0,0-.58.07,1.8,1.8,0,0,0-.57.4,1.55,1.55,0,0,0-.39.65,1.34,1.34,0,0,0,0,.66,2,2,0,0,0,.29.65,4.21,4.21,0,0,0,.52.61l2.2,2.14a1.49,1.49,0,0,0,.44.31.71.71,0,0,0,.37,0,.79.79,0,0,0,.34-.15,2.73,2.73,0,0,0,.33-.28l0,0,.42.41-1.7,1.74-3.46-3.36a4,4,0,0,0-.64-.52,1.77,1.77,0,0,0-.61-.23,1.2,1.2,0,0,0-.59.06,1.67,1.67,0,0,0-.56.41,1.4,1.4,0,0,0-.41.68,1.51,1.51,0,0,0,0,.7,2,2,0,0,0,.33.7,4.35,4.35,0,0,0,.56.66l2.12,2.06a1.06,1.06,0,0,0,.42.28.71.71,0,0,0,.38,0,1,1,0,0,0,.34-.17q.16-.14.33-.3Z"/>
    <path class="cls-6" d="M769.56,233.91a1.37,1.37,0,0,1-.3-.28.63.63,0,0,1-.12-.3.54.54,0,0,1,0-.28,2,2,0,0,1,.15-.29.88.88,0,0,1,.21-.22.53.53,0,0,1,.26-.13.87.87,0,0,1,.32,0,1.25,1.25,0,0,1,.37.18,1.39,1.39,0,0,1,.3.29.78.78,0,0,1,.12.29.57.57,0,0,1,0,.29,1,1,0,0,1-.14.28,1,1,0,0,1-.22.23.5.5,0,0,1-.26.13.87.87,0,0,1-.32,0A1.18,1.18,0,0,1,769.56,233.91Zm7,6c.09-.13.16-.26.23-.38a1.08,1.08,0,0,0,.1-.37.62.62,0,0,0-.09-.37,1.17,1.17,0,0,0-.35-.36l-3.64-2.53a1.15,1.15,0,0,0-.46-.21.68.68,0,0,0-.38,0,1,1,0,0,0-.33.22c-.09.1-.19.22-.28.34l0,0-.48-.34,1.43-2.05,4.85,3.37a1.26,1.26,0,0,0,.49.23.84.84,0,0,0,.39,0,.92.92,0,0,0,.32-.22,3.17,3.17,0,0,0,.28-.34l.11-.16.48.34-2.27,3.27-.48-.34Z"/>
    <path class="cls-6" d="M780.93,233.13a2.67,2.67,0,0,0,.21-.41c.06-.14.11-.27.16-.41l.53.31a1.2,1.2,0,0,1,0,.24c0,.1-.06.2-.1.31s-.09.21-.14.33a3,3,0,0,1-.16.31,3.48,3.48,0,0,1-.56.73,1.4,1.4,0,0,1-.64.35,1.52,1.52,0,0,1-.76,0,3.91,3.91,0,0,1-.94-.42l-4-2.38-.55.92-.48-.28a2,2,0,0,0,.2-.53,1.39,1.39,0,0,0,0-.64,2,2,0,0,0-.33-.65,5.61,5.61,0,0,0-.65-.68l.33-.55,1.48.88.94-1.58.68.41-.93,1.57,4.06,2.4a1.6,1.6,0,0,0,1.06.29A1,1,0,0,0,780.93,233.13Z"/>
    <path class="cls-6" d="M784.21,228.4a3.53,3.53,0,0,1-.82,1.12,2.69,2.69,0,0,1-1.12.59,3.4,3.4,0,0,1-1.36.06,5.86,5.86,0,0,1-1.56-.5,4.6,4.6,0,0,1-2.31-2,2.77,2.77,0,0,1,.1-2.5,3.18,3.18,0,0,1,.72-1,2.43,2.43,0,0,1,1-.55,3.14,3.14,0,0,1,1.2-.07,4.67,4.67,0,0,1,1.39.45l.58.28-2,4.2a5.7,5.7,0,0,0,1.26.43,2.39,2.39,0,0,0,1,0,1.53,1.53,0,0,0,.75-.35,2.26,2.26,0,0,0,.53-.73,2.32,2.32,0,0,0,.22-.64,3.17,3.17,0,0,0,0-.6,2.34,2.34,0,0,0-.09-.54,1.85,1.85,0,0,0-.19-.45.44.44,0,0,1,.23-.08.49.49,0,0,1,.31.05.84.84,0,0,1,.35.33,1.51,1.51,0,0,1,.2.61,2.67,2.67,0,0,1,0,.84A3.86,3.86,0,0,1,784.21,228.4Zm-6.41-2.89a1.4,1.4,0,0,0,.05,1.36,3.8,3.8,0,0,0,1.46,1.24l1.39-2.9a5.36,5.36,0,0,0-1-.36,2.48,2.48,0,0,0-.82-.11,1.31,1.31,0,0,0-.66.2A1.43,1.43,0,0,0,777.8,225.51Z"/>
    <path class="cls-6" d="M786.84,217.5a1.26,1.26,0,0,0,.5.09.72.72,0,0,0,.36-.14.89.89,0,0,0,.25-.29,2.54,2.54,0,0,0,.18-.41l0-.1.56.2-.83,2.22-1.23-.29,0,.05a2.63,2.63,0,0,1,.42.54,2.12,2.12,0,0,1,.25.58,2.32,2.32,0,0,1,.06.65,3,3,0,0,1-.16.73,3.21,3.21,0,0,1-.64,1.07,2.16,2.16,0,0,1-1,.59,3.29,3.29,0,0,1-1.32.1,7.7,7.7,0,0,1-1.7-.43,7.17,7.17,0,0,1-1.57-.78,3.45,3.45,0,0,1-1-.94,2.19,2.19,0,0,1-.35-1.08,3.07,3.07,0,0,1,.21-1.23,2.35,2.35,0,0,1,.34-.65,2,2,0,0,1,.44-.47,1.86,1.86,0,0,1,.53-.3,2.7,2.7,0,0,1,.59-.17l0-.07-.62-.19-.5-.15-.36-.12-1.07-.4a1.08,1.08,0,0,0-.5-.08.71.71,0,0,0-.36.13,1.05,1.05,0,0,0-.25.3,2.43,2.43,0,0,0-.18.4l0,.11-.55-.2.89-2.42Zm-.38,3.29a2,2,0,0,0,.14-.92,1.35,1.35,0,0,0-.31-.74,2.72,2.72,0,0,0-.76-.62,9.53,9.53,0,0,0-1.21-.54,7.52,7.52,0,0,0-1.24-.36,2.79,2.79,0,0,0-1,0,1.53,1.53,0,0,0-.75.35,2,2,0,0,0-.5.8,1.46,1.46,0,0,0-.09.81,1.52,1.52,0,0,0,.36.7,2.79,2.79,0,0,0,.78.61,8.23,8.23,0,0,0,1.18.54,4.79,4.79,0,0,0,2.23.4A1.41,1.41,0,0,0,786.46,220.79Z"/>
  </g>
</svg>
