<?xml version="1.0" encoding="UTF-8"?>
<svg id="Layer_1" xmlns="http://www.w3.org/2000/svg" version="1.1" viewBox="0 0 16 16">
  <!-- Generator: Adobe Illustrator 29.8.2, SVG Export Plug-In . SVG Version: 2.1.1 Build 3)  -->
  <path d="M5.3,9.2c1.5,0,2.7-1.2,2.7-2.7s-1.2-2.7-2.7-2.7-2.7,1.2-2.7,2.7,1.2,2.7,2.7,2.7ZM7.1,6.5c0,1-.8,1.8-1.8,1.8s-1.8-.8-1.8-1.8.8-1.8,1.8-1.8,1.8.8,1.8,1.8ZM10.7,13.6c0,.9-.9.9-.9.9H.9s-.9,0-.9-.9.9-3.6,5.3-3.6,5.3,2.7,5.3,3.6ZM9.8,13.6c0-.2-.1-.9-.7-1.5s-1.7-1.2-3.7-1.2-3.1.6-3.7,1.2c-.6.6-.7,1.3-.7,1.5h8.9Z"/>
  <path d="M10.1,1.7c0-.1.1-.2.2-.2h5.2c.1,0,.2.1.2.2s-.1.2-.2.2h-.5v.5c0,.8-.5,1.6-1.2,1.9-.1,0-.2.2-.2.3v.3c0,.1,0,.2.2.3.7.4,1.2,1.1,1.2,1.9v.5h.5c.1,0,.2.1.2.2s-.1.2-.2.2h-5.2c-.1,0-.2-.1-.2-.2s.1-.2.2-.2h.5v-.5c0-.8.5-1.6,1.2-1.9.1,0,.2-.2.2-.3v-.3c0-.1,0-.2-.2-.3-.7-.4-1.2-1.1-1.2-1.9v-.5h-.5c-.1,0-.2-.1-.2-.2ZM11.3,1.9v.5c0,.6.4,1.2.9,1.5.3.1.5.4.5.7v.3s0,0,.2,0,.2,0,.2,0v-.3c0-.3.2-.6.5-.7.6-.3.9-.9.9-1.5v-.5h-3.3Z"/>
</svg>