<svg xmlns="http://www.w3.org/2000/svg" fill='#003366' viewBox="0 0 16 16">
    <path d="M5.3 9.2C6.8 9.2 8 8 8 6.5S6.8 3.8 5.3 3.8 2.6 5 2.6 6.5s1.2 2.7 2.7 2.7m1.8-2.7c0 1-.8 1.8-1.8 1.8s-1.8-.8-1.8-1.8.8-1.8 1.8-1.8 1.8.8 1.8 1.8m3.6 7.1c0 .9-.9.9-.9.9H.9s-.9 0-.9-.9S.9 10 5.3 10s5.3 2.7 5.3 3.6Zm-.9 0c0-.2-.1-.9-.7-1.5s-1.7-1.2-3.7-1.2-3.1.6-3.7 1.2-.7 1.3-.7 1.5h8.9ZM10.1 1.7c0-.1.1-.2.2-.2h5.2c.1 0 .2.1.2.2s-.1.2-.2.2H15v.5c0 .8-.5 1.6-1.2 1.9-.1 0-.2.2-.2.3v.3c0 .1 0 .2.2.3.7.4 1.2 1.1 1.2 1.9v.5h.5c.1 0 .2.1.2.2s-.1.2-.2.2h-5.2c-.1 0-.2-.1-.2-.2s.1-.2.2-.2h.5v-.5c0-.8.5-1.6 1.2-1.9.1 0 .2-.2.2-.3v-.3c0-.1 0-.2-.2-.3-.7-.4-1.2-1.1-1.2-1.9v-.5h-.5c-.1 0-.2-.1-.2-.2m1.2.2v.5c0 .6.4 1.2.9 1.5.3.1.5.4.5.7v.3h.4v-.3c0-.3.2-.6.5-.7.6-.3.9-.9.9-1.5v-.5h-3.3Z"/>
</svg>