<svg id="Default" xmlns="http://www.w3.org/2000/svg" width="200" height="200" viewBox="0 0 200 200">
  <g id="Logo_Full-color" data-name="Logo Full-color">
    <g id="bg">
      <rect id="path-1" width="200" height="200"/>
      <rect id="path-1-2" width="200" height="200" style="fill: #fff"/>
    </g>
  </g>
  <g>
    <path d="M145.16,54.44A55.4,55.4,0,0,0,46,98l55.7-24.74H71.14A31.87,31.87,0,0,1,122.48,64Z" style="fill: #036"/>
    <polygon points="156.48 51.76 100.74 108.46 30.02 108.46 156.48 51.76" style="fill: #2990ea"/>
    <polygon points="41.74 162.46 36.74 162.46 36.74 166.5 42.32 166.5 42.32 168.42 34.24 168.42 34.24 154.96 42.12 154.96 42.12 156.88 36.74 156.88 36.74 160.54 41.74 160.54 41.74 162.46" style="fill: #036"/>
    <path d="M46.92,155v7.88c0,2.7,1.16,3.84,2.7,3.84s2.88-1.14,2.88-3.84V155H55v7.7c0,4.22-2.12,6-5.38,6s-5.2-1.74-5.2-6V155Z" style="fill: #036"/>
    <path d="M58,155.16a18.59,18.59,0,0,1,3.64-.38,6.59,6.59,0,0,1,4.24,1.14,3.21,3.21,0,0,1,1.14,2.7,3.29,3.29,0,0,1-2.5,3.26,3.74,3.74,0,0,1,2,2.5,30,30,0,0,0,.8,3.62h-2.5a18.61,18.61,0,0,1-1-3.08c-.4-1.74-1-2.3-2.5-2.3H60.2v5.56H57.7v-13Zm2.3,6h1.54c1.72,0,2.68-1,2.68-2.32s-1-2.1-2.68-2.1c-.78,0-1.34,0-1.54.18Z" style="fill: #036"/>
    <path d="M74.6,168.62c-3.84,0-6.16-2.88-6.16-6.94a6.58,6.58,0,0,1,6-7.08l.3,0a6.12,6.12,0,0,1,6.19,6c0,.22,0,.45,0,.67.2,4.82-2.68,7.32-6.34,7.32m.2-2c2.3,0,3.66-2,3.66-5,0-2.48-1.36-5-3.66-5s-3.66,2.3-3.66,5,1.16,5,3.66,5" style="fill: #036"/>
    <path d="M92.86,168a12,12,0,0,1-3.46.58,6.43,6.43,0,0,1-6.91-5.89,6,6,0,0,1,0-.85,6.76,6.76,0,0,1,6.4-7.1q.36,0,.72,0a9.8,9.8,0,0,1,3.26.56l-.58,2a7.29,7.29,0,0,0-2.68-.58,4.9,4.9,0,1,0,0,9.8,12.2,12.2,0,0,0,2.68-.38Z" style="fill: #036"/>
    <path d="M99.78,168.62c-3.84,0-6.16-2.88-6.16-6.94a6.58,6.58,0,0,1,6-7.08l.34,0a6.12,6.12,0,0,1,6.19,6c0,.22,0,.45,0,.67.2,4.82-2.5,7.32-6.34,7.32m.2-2c2.3,0,3.64-2,3.64-5,0-2.48-1.34-5-3.64-5s-3.66,2.3-3.66,5,1.34,5,3.66,5" style="fill: #036"/>
    <path d="M108.44,168.42V155h2.88l3.46,5.76a38.58,38.58,0,0,1,2.3,4.42,47.23,47.23,0,0,1-.2-5.58V155h2.3v13.46h-2.5l-3.64-6a49.84,49.84,0,0,1-2.32-4.62,50.32,50.32,0,0,1,.2,5.76v4.82Z" style="fill: #036"/>
    <polygon points="124.38 157.08 120.54 157.08 120.54 154.96 130.72 154.96 130.72 157.08 126.88 157.08 126.88 168.42 124.38 168.42 124.38 157.08" style="fill: #036"/>
    <path d="M132.26,155.16a18.76,18.76,0,0,1,3.74-.38,6.51,6.51,0,0,1,4.22,1.14,3.22,3.22,0,0,1,1.16,2.7,3.35,3.35,0,0,1-2.5,3.26,3.71,3.71,0,0,1,2,2.5,30,30,0,0,0,.8,3.62h-2.5a20.73,20.73,0,0,1-1-3.08c-.38-1.74-1-2.3-2.5-2.3h-1.14v5.56H132v-13Zm2.5,6h1.54c1.74,0,2.68-1,2.68-2.32s-.94-2.1-2.68-2.1c-.78,0-1.34,0-1.54.18Z" style="fill: #036"/>
    <path d="M149.18,168.62c-3.84,0-6.16-2.88-6.16-6.94a6.59,6.59,0,0,1,6.08-7.08l.28,0a6.1,6.1,0,0,1,6.17,6q0,.34,0,.69c0,4.82-2.7,7.32-6.34,7.32m.2-2c2.3,0,3.64-2,3.64-5,0-2.48-1.34-5-3.64-5s-3.66,2.3-3.66,5,1.14,5,3.66,5" style="fill: #036"/>
    <polygon points="157.64 154.96 160.14 154.96 160.14 166.3 165.7 166.3 165.7 168.42 157.82 168.42 157.82 154.96 157.64 154.96" style="fill: #036"/>
    <path d="M99.76,119a32.37,32.37,0,0,1-20.52-7.26H49.56a56.54,56.54,0,0,0,101.36-1.54H122A32.52,32.52,0,0,1,99.7,119" style="fill: #036"/>
  </g>
</svg>
