<?xml version="1.0" standalone="no"?>
<!DOCTYPE svg PUBLIC "-//W3C//DTD SVG 20010904//EN"
 "http://www.w3.org/TR/2001/REC-SVG-20010904/DTD/svg10.dtd">
<svg version="1.0" xmlns="http://www.w3.org/2000/svg"
 width="1024.000000pt" height="1024.000000pt" viewBox="0 0 1024.000000 1024.000000"
 preserveAspectRatio="xMidYMid meet">
<metadata>
Created by potrace 1.14, written by Peter Selinger 2001-2017
</metadata>
<g transform="translate(0.000000,1024.000000) scale(0.100000,-0.100000)"
fill="#000000" stroke="none">
<path d="M5718 8285 c-2 -3 -38 -7 -79 -10 -41 -2 -83 -7 -94 -9 -28 -5 -94
-16 -130 -21 -16 -2 -70 -13 -119 -25 -50 -11 -97 -22 -105 -24 -9 -2 -23 -6
-31 -9 -8 -3 -49 -16 -90 -27 -41 -12 -88 -28 -105 -35 -16 -7 -52 -20 -80
-30 -49 -17 -205 -87 -235 -105 -8 -5 -40 -21 -70 -36 -30 -15 -92 -51 -138
-81 -45 -29 -85 -53 -88 -53 -3 0 -10 -5 -17 -10 -45 -38 -61 -50 -67 -50 -3
0 -15 -8 -26 -17 -10 -10 -53 -45 -94 -77 -81 -65 -316 -297 -365 -361 -16
-22 -42 -53 -56 -70 -72 -86 -222 -326 -279 -447 -20 -42 -24 -46 -37 -32 -70
70 -325 192 -468 224 -27 7 -59 14 -70 16 -68 16 -171 25 -275 24 -87 0 -94
-1 -190 -15 -30 -5 -62 -9 -70 -10 -8 -1 -35 -7 -60 -14 -25 -7 -52 -15 -60
-16 -8 -2 -16 -4 -17 -5 -2 -2 -6 -3 -10 -5 -5 -1 -17 -5 -28 -10 -11 -4 -42
-17 -70 -27 -60 -23 -169 -80 -173 -90 -2 -5 -9 -8 -14 -8 -42 0 -301 -237
-370 -338 -17 -26 -34 -49 -38 -52 -8 -7 -52 -84 -88 -155 -37 -73 -88 -220
-102 -295 -20 -103 -21 -115 -25 -179 l-3 -64 -69 -29 c-99 -41 -238 -112
-278 -141 -5 -4 -41 -28 -80 -54 -147 -98 -280 -218 -401 -363 -74 -88 -194
-262 -194 -280 0 -5 -4 -10 -9 -10 -5 0 -12 -12 -16 -27 -3 -15 -15 -39 -26
-55 -11 -15 -17 -28 -12 -28 4 0 3 -4 -3 -8 -12 -8 -69 -141 -92 -217 -8 -27
-17 -54 -19 -60 -58 -182 -81 -359 -77 -590 3 -169 6 -215 18 -275 3 -13 8
-40 11 -60 8 -55 13 -79 19 -88 3 -5 8 -23 11 -40 3 -18 19 -71 36 -119 17
-49 36 -105 42 -126 6 -20 15 -37 19 -37 4 0 8 -5 8 -11 0 -20 91 -193 138
-261 18 -26 32 -51 32 -56 0 -6 4 -12 8 -14 5 -1 22 -21 38 -43 34 -48 38 -53
106 -129 85 -95 167 -174 248 -236 25 -19 53 -43 64 -52 10 -9 34 -24 52 -33
19 -9 34 -20 34 -25 0 -6 4 -10 10 -10 5 0 38 -18 74 -39 101 -62 328 -163
391 -175 6 -1 15 -4 20 -7 8 -5 31 -11 125 -34 6 -2 76 -16 105 -22 11 -2 36
-6 55 -9 19 -3 38 -10 41 -15 10 -16 6974 -5 6974 11 0 1 14 3 30 5 79 7 228
46 340 87 103 39 324 146 345 168 3 3 29 21 57 40 29 19 53 38 53 43 0 4 7 7
15 7 8 0 15 4 15 8 0 4 12 15 28 24 36 22 207 189 257 253 22 28 43 52 46 55
20 18 179 271 179 285 0 2 15 37 34 77 19 40 45 107 59 148 44 135 46 143 62
225 3 17 7 39 10 51 19 87 27 410 13 519 -9 65 -17 115 -22 140 -27 128 -54
225 -68 240 -4 5 -8 17 -8 27 0 10 -4 26 -9 36 -5 9 -16 33 -24 52 -46 106
-135 271 -156 290 -3 3 -22 28 -41 55 -19 28 -39 55 -45 61 -5 6 -23 28 -40
49 -29 37 -124 131 -195 194 -41 36 -193 146 -248 178 -99 59 -332 160 -412
179 -42 10 -41 9 -60 17 -25 10 -171 38 -223 43 -16 1 -32 5 -35 9 -9 8 -9
105 0 105 4 0 3 13 -2 30 -5 18 -5 32 1 36 5 3 7 10 3 15 -3 5 -7 55 -10 112
-4 103 -9 154 -18 217 -13 85 -17 104 -37 192 -11 51 -22 101 -24 111 -7 32
-84 254 -105 303 -40 92 -155 315 -167 326 -7 6 -13 15 -13 20 0 17 -170 255
-234 328 -61 68 -276 280 -325 320 -24 19 -50 41 -57 48 -7 6 -15 12 -18 12
-3 0 -14 7 -23 16 -36 33 -138 104 -150 104 -6 0 -13 4 -15 8 -4 10 -135 92
-147 92 -5 0 -11 3 -13 8 -3 7 -211 112 -222 112 -3 0 -29 11 -58 23 -64 29
-141 57 -148 55 -3 -1 -15 4 -28 11 -13 7 -31 14 -40 16 -9 2 -48 13 -87 25
-82 24 -88 25 -180 45 -38 8 -79 16 -90 19 -22 4 -142 22 -215 32 -57 7 -495
15 -502 9z"/>
</g>
</svg>
