<svg id="Layer_1" data-name="Layer 1" xmlns="http://www.w3.org/2000/svg" viewBox="0 0 24.87 24.87">
  <defs>
    <style>
      .cls-1, .cls-2 {
        fill: gold;
      }

      .cls-2 {
        stroke: #474747;
        stroke-linecap: round;
        stroke-linejoin: round;
        stroke-width: 1.5px;
      }

      .cls-3 {
        fill: #474747;
      }
    </style>
  </defs>
  <circle class="cls-1" cx="12.44" cy="12.44" r="12.44"/>
  <circle class="cls-2" cx="12.44" cy="12.44" r="9"/>
  <path class="cls-3" d="M12.53,15.19a1.12,1.12,0,0,1,.8.29,1,1,0,0,1,.31.76,1,1,0,0,1-.31.74,1.09,1.09,0,0,1-.8.3,1.1,1.1,0,0,1-.8-.3,1,1,0,0,1-.3-.74,1,1,0,0,1,.3-.75A1.1,1.1,0,0,1,12.53,15.19Zm.82-1.08H11.71l-.23-6.9h2.1Z"/>
</svg>
