<svg xmlns="http://www.w3.org/2000/svg" xmlns:xlink="http://www.w3.org/1999/xlink" viewBox="0 0 1212.1 344.92">
  <defs>
    <linearGradient id="linear-gradient" x1="118.31" y1="20.62" x2="118.31" y2="160.71" gradientUnits="userSpaceOnUse">
      <stop offset="0" stop-color="#f5cec7"/>
      <stop offset="0.23" stop-color="#efb6ac"/>
      <stop offset="0.71" stop-color="#df7966"/>
      <stop offset="1" stop-color="#d55239"/>
    </linearGradient>
  </defs>
  <g id="text">
    <g>
      <path d="M612.83,228.61V137.88H612l-39.46,9.29v1.26c7.18,2.54,10.77,6.33,10.77,19.84v60.34c0,13.51-.64,20.68-9.29,20.68v1.27h48.11v-1.27C613.46,249.29,612.83,242.12,612.83,228.61Z" fill="#374160"/>
      <path d="M472.3,228.61V137.88h-.84L432,147.17v1.26c7.17,2.54,10.76,6.33,10.76,19.84v60.34c0,13.11-.62,20.23-8.55,20.64-14.53-.75-28.11-54.44-51.58-73.81V175c19.83-5.06,34-18.36,34-38.61C420.33,85,334,98.44,298.86,97v1.27c14.35,0,15.19,10.55,15.19,26.16v98.75c0,15.61-.84,26.16-15.19,26.16v1.27h62v-1.27c-14.35,0-15.62-10.55-15.62-26.16V177.34c8.24-.26,13.84-.42,17.51,9.07,25.75,59.72,29.54,65,46.85,65,18.69-.52,53.8-1.17,71.95-.84v-1.27C472.93,249.29,472.3,242.12,472.3,228.61ZM357.52,174H345.28v-66c0-5.06,3-7.59,8-7.59C393.21,93,396.56,176.77,357.52,174Z" fill="#374160"/>
      <path d="M596.79,123.54c21.76-.34,22-33,0-33.55C574.54,90.1,574.79,123.62,596.79,123.54Z" fill="#374160"/>
      <path d="M456.27,123.54c21.76-.34,22-33,0-33.55C434,90.1,434.27,123.62,456.27,123.54Z" fill="#374160"/>
      <path d="M537.08,181.77c-10.37-6.31-26.14-10.4-26.38-25.32,0-9.28,6.54-16,17.51-16,14.35,0,24.69,12.66,31.65,27.85h1.27V142.74c-63-24.08-95.08,36.26-45.58,61.61,13.39,7.57,33.43,14.92,32.08,28.06,0,12-9.71,17.73-20.89,17.73-17.73,0-27.22-15.83-36.08-33.34h-1.27l1.9,30.59c27.15,12.5,77.06,5.26,75.11-30.59C566.4,196.33,551.42,189.37,537.08,181.77Z" fill="#374160"/>
      <path d="M852.73,138.1l-34.4,4.43c-56.86-25-94.54,41.65-44.73,66.25-13.29,7.39-21.52,13.93-21.52,23.84,0,9.71,5.91,17.09,19.41,17.09h40.94c39,.54,24,46.37-8.66,43.26-27.31.89-41.27-21.31-28.48-40.94C736,257.8,739.66,302.31,788,301.2c58.73,3.59,97.52-72.13,28.91-76H778c-12.32-.44-11.12-9.86-1.9-15.41,42.49,14.08,80.63-25.35,50.86-61L848.93,151Zm-58.66,71.31c-23.68,2.05-23.57-71,0-69C817.56,138.3,817.44,211.5,794.07,209.41Z" fill="#374160"/>
      <path d="M733.72,228.61c-3.21-24.54,13.35-93.54-27.42-91.15-14.35,0-27.86,9.71-38.41,20.26V137.88h-.84l-39.46,9.29v1.26c7.18,2.54,10.76,6.33,10.76,19.84v60.34c0,13.51-.63,20.68-9.28,20.68v1.27h48.11v-1.27c-8.65,0-9.29-7.17-9.29-20.68V159.83c19.06-11.4,38.34-8.69,36.29,18.15v50.63c0,13.51-.63,20.68-9.28,20.68v1.27H743v-1.27C734.36,249.29,733.72,242.12,733.72,228.61Z" fill="#374160"/>
      <path d="M1180.87,185v1.27c25,2-4.52,57.6-8.44,72.16l-20.46-54c-3.8-9.5-3.59-17.31,5.9-18.15V185h-90.94v1.27c26.52,7.85-14.69,40.2-24,50.22,32.43,62.69,28.16,61.81,69.21,59.08v-1.27c-5.28-1.69-19-23.21-46.84-74.9,18.21-17.4,35-30.72,42.92-32.9,13.42,2.65,42,98.23,49.7,111.39-7.49,24.87-18.16,46-43,22.15h-1.27l-2.11,23.64c20.53,4.65,34.06-3.18,44.74-30.6,10.4-19.35,36.47-121.1,55.91-126.81V185Z" fill="#374160"/>
      <path d="M956,203.56l-11-5.27c-66.64-29.37,8.32-97.52,39.45-20.47h1.27v-31c-35.46-14.71-85-8.69-84.82,38.83.94,31.66,21.24,37.49,40.09,46.84,17.09,8.23,32.49,16,32.49,34.39,0,17.73-13.29,28.28-29.33,28.28-21.31,0-35-15.83-45.36-43.47H897.5L899,290.49c10.13,4.22,28.91,7.6,40.93,7.6C1000.31,298.53,1009.35,219.69,956,203.56Z" fill="#374160"/>
      <path d="M1038.45,273.61v-143h-.84l-39.46,7.59v1.27c7.17,2.53,10.76,6.33,10.76,19.83V273.61c0,13.51-.63,20.68-9.28,20.68v1.27h48.1v-1.27C1039.08,294.29,1038.45,287.12,1038.45,273.61Z" fill="#374160"/>
    </g>
    <circle cx="123" cy="113" r="53" fill="#ffe000"/>
  </g>
  <g id="cloud">
    <path d="M81,66.36a29.08,29.08,0,0,0-18-6.24,29.59,29.59,0,0,0-29.42,29A44.17,44.17,0,0,0,43,174v.4h150.7v-.07a40.52,40.52,0,0,0,2.22-80.62c.09-1.26.13-2.55.13-3.83,0-32.22-26.88-58.33-60-58.33A60.14,60.14,0,0,0,81,66.36" fill="url(#linear-gradient)"/>
  </g>
</svg>
