<svg  id="rs-logo" xmlns="http://www.w3.org/2000/svg" viewBox="0 0 1211.52 320.19">
    <g fill="var(--color-text)">
      <path class="cls-1" d="M609.08,198.36V107.63h-.84l-39.46,9.28v1.27c7.18,2.53,10.76,6.33,10.76,19.83v60.35c0,13.5-.63,20.68-9.28,20.68v1.26h48.11V219C609.72,219,609.08,211.86,609.08,198.36Z"/>
      <path class="cls-1" d="M468.56,198.36V107.63h-.84l-39.46,9.28v1.27C435.43,120.71,439,124.51,439,138v60.35c0,13.1-.62,20.23-8.56,20.64-14.52-.75-28.1-54.44-51.57-73.81v-.42c19.83-5.07,34-18.36,34-38.62,3.73-51.37-82.58-38-117.74-39.45V68c14.35,0,15.19,10.55,15.19,26.17v98.74c0,15.62-.84,26.17-15.19,26.17v1.26h62V219c-14.34,0-15.61-10.55-15.61-26.17V147.09c8.24-.26,13.84-.42,17.51,9.07,25.74,59.71,29.54,65,46.85,65,18.69-.53,53.8-1.17,72-.85V219C469.19,219,468.56,211.86,468.56,198.36ZM353.78,143.71H341.54v-66c0-5.07,2.95-7.6,8-7.6C389.47,62.79,392.82,146.51,353.78,143.71Z"/>
      <path class="cls-1" d="M593.05,93.28c21.76-.33,22-33,0-33.55C570.8,59.84,571.05,93.36,593.05,93.28Z"/>
      <path class="cls-1" d="M452.53,93.28c21.76-.33,22-33,0-33.55C430.28,59.84,430.53,93.36,452.53,93.28Z"/>
      <path class="cls-1" d="M533.33,151.52C523,145.2,507.2,141.12,507,126.2c0-9.29,6.54-16,17.51-16,14.35,0,24.69,12.66,31.65,27.85h1.27V112.48c-63-24.08-95.08,36.27-45.58,61.62,13.39,7.57,33.43,14.91,32.07,28.06,0,12-9.7,17.72-20.88,17.72-17.73,0-27.22-15.82-36.08-33.34h-1.27l1.9,30.6c27.15,12.5,77.06,5.26,75.11-30.6C562.66,166.08,547.68,159.11,533.33,151.52Z"/>
      <path class="cls-1" d="M849,107.84l-34.4,4.43c-56.86-25-94.54,41.66-44.73,66.26-13.29,7.38-21.52,13.92-21.52,23.84,0,9.71,5.91,17.09,19.41,17.09h40.94c39,.53,24,46.37-8.66,43.25-27.31.9-41.27-21.3-28.48-40.93-39.32,5.77-35.63,50.27,12.66,49.16,58.73,3.59,97.52-72.12,28.91-76H774.29c-12.32-.44-11.12-9.86-1.9-15.4,42.49,14.07,80.63-25.36,50.85-61l22,2.11Zm-58.66,71.32c-23.68,2.05-23.57-71,0-69C813.82,108,813.7,181.24,790.33,179.16Z"/>
      <path class="cls-1" d="M730,198.36c-3.21-24.54,13.35-93.54-27.42-91.15-14.35,0-27.86,9.7-38.41,20.25V107.63h-.84l-39.46,9.28v1.27c7.18,2.53,10.76,6.33,10.76,19.83v60.35c0,13.5-.63,20.68-9.28,20.68v1.26h48.11V219c-8.65,0-9.29-7.18-9.29-20.68V129.57c19.06-11.4,38.34-8.69,36.29,18.15v50.64c0,13.5-.63,20.68-9.28,20.68v1.26h48.11V219C730.62,219,730,211.86,730,198.36Z"/>
      <path class="cls-1" d="M1177.13,154.74V156c25,1.94-4.52,57.6-8.44,72.16l-20.46-54c-3.8-9.49-3.59-17.3,5.9-18.14v-1.27h-90.94V156c26.52,7.85-14.7,40.2-24,50.21,32.43,62.7,28.16,61.82,69.21,59.08V264c-5.28-1.69-19-23.21-46.84-74.91,18.2-17.4,35-30.71,42.92-32.9,13.42,2.66,42,98.24,49.7,111.39-7.49,24.87-18.17,46-43,22.16h-1.27l-2.11,23.63c20.52,4.65,34.06-3.18,44.74-30.59,10.39-19.35,36.47-121.1,55.91-126.81v-1.27Z"/>
      <path class="cls-1" d="M952.21,173.31l-11-5.28c-66.64-29.36,8.32-97.52,39.45-20.46H982v-31c-35.46-14.72-85-8.69-84.82,38.83.94,31.66,21.24,37.49,40.09,46.84,17.09,8.22,32.49,16,32.49,34.39,0,17.72-13.29,28.27-29.33,28.27-21.31,0-35-15.82-45.36-43.46h-1.27l1.48,38.82c10.13,4.22,28.91,7.6,40.93,7.6C996.57,268.28,1005.61,189.44,952.21,173.31Z"/>
      <path class="cls-1" d="M1034.71,243.36V100.3h-.85l-39.45,7.6v1.27c7.17,2.53,10.76,6.33,10.76,19.83V243.36c0,13.5-.63,20.68-9.28,20.68v1.26H1044V264C1035.34,264,1034.71,256.86,1034.71,243.36Z"/>
  </g>
  <g  fill="var(--color-secondary)">
    <path class="cls-2" d="M77.27,36.11a29,29,0,0,0-18-6.24,29.59,29.59,0,0,0-29.42,29,44.17,44.17,0,0,0,9.4,84.89v.41h150.7v-.07a40.52,40.52,0,0,0,2.22-80.62c.09-1.27.13-2.55.13-3.84,0-32.21-26.88-58.32-60-58.32a60.14,60.14,0,0,0-55,34.81"/>
  </g>
</svg>
