<svg xmlns="http://www.w3.org/2000/svg" viewBox="0 0 49.02 39.5">
  <g id="Layer_2" data-name="Layer 2">
    <path d="M2,27.5H47c1.66,0,2.44,1.58,1.78,3.43l-2.13,6a4,4,0,0,1-3.42,2.61H5.79a4,4,0,0,1-3.43-2.61l-2.13-6C-.43,29.08.35,27.5,2,27.5Z" fill="#317c77"/>
    <g>
      <path d="M3.64,23.5h12c.47,0,.86-.57.86-1.26V4.85c0-.87-.72-1.3-1.14-.69L3.2,21.94C2.8,22.51,3.08,23.5,3.64,23.5Z" fill="#317c77"/>
      <path d="M42.41,23.5h-21A1.52,1.52,0,0,1,19.91,22V1.17a1.17,1.17,0,0,1,2-.83L43.19,21.63A1.1,1.1,0,0,1,42.41,23.5Z" fill="#317c77"/>
    </g>
  </g>
  <g id="Layer_3" data-name="Layer 3">
    <g opacity="0">
      <rect x="-0.49" width="50" height="40" fill="#fff"/>
    </g>
  </g>
</svg>
